<?xml version="1.0" encoding="UTF-8"?>
<!DOCTYPE svg PUBLIC "-//W3C//DTD SVG 1.1//EN" "http://www.w3.org/Graphics/SVG/1.1/DTD/svg11.dtd">
<!-- Creator: CorelDRAW X8 -->
<svg xmlns="http://www.w3.org/2000/svg" xml:space="preserve" width="275.1mm" height="136.591mm" version="1.1" style="shape-rendering:geometricPrecision; text-rendering:geometricPrecision; image-rendering:optimizeQuality; fill-rule:evenodd; clip-rule:evenodd"
viewBox="0 0 54839 27228"
 xmlns:xlink="http://www.w3.org/1999/xlink">
 <defs>
  <style type="text/css">
   <![CDATA[
    .str0 {stroke:#A9ABAE;stroke-width:39.8681}
    .fil0 {fill:#FEFEFE}
    .fil2 {fill:#009688}
    .fil3 {fill:#FEFEFE;fill-rule:nonzero}
    .fil1 {fill:#373435;fill-rule:nonzero}
    .fil4 {fill:#373435;fill-rule:nonzero}
    .fil5 {fill:#201E1E;fill-rule:nonzero}
   ]]>
  </style>
 </defs>
 <g id="Camada_x0020_1">
  <metadata id="CorelCorpID_0Corel-Layer"/>
  <g id="_2637983814288">
   <g>
    <rect class="fil0 str0" x="3768" y="10747" width="51051" height="3583"/>
    <rect class="fil0 str0" x="3768" y="14330" width="51051" height="3583"/>
    <rect class="fil0 str0" x="3768" y="17913" width="51051" height="3583"/>
    <rect class="fil0 str0" x="3768" y="21496" width="51051" height="3583"/>
    <path class="fil1" d="M366 3909l-122 0 0 -778c-29,29 -68,57 -115,85 -48,28 -91,49 -129,62l0 -117c68,-32 128,-71 179,-117 51,-46 87,-90 109,-133l78 0 0 998z"/>
    <path id="1" class="fil1" d="M680 3648l128 -10c9,62 31,109 65,141 35,31 77,47 126,47 59,0 109,-23 149,-67 41,-44 61,-103 61,-176 0,-70 -19,-124 -58,-165 -39,-40 -90,-60 -153,-60 -40,0 -75,9 -107,27 -31,18 -55,41 -73,70l-116 -17 96 -510 493 0 0 116 -396 0 -53 268c60,-41 122,-62 188,-62 86,0 159,30 219,90 59,60 89,137 89,232 0,90 -26,167 -79,233 -63,80 -150,121 -260,121 -90,0 -164,-26 -221,-77 -57,-50 -90,-117 -98,-201z"/>
    <path id="2" class="fil1" d="M1517 3909l0 -139 139 0 0 139c0,51 -9,92 -27,124 -18,31 -47,56 -87,73l-33 -53c26,-11 45,-28 57,-50 12,-22 19,-53 20,-94l-69 0z"/>
    <path id="3" class="fil1" d="M1837 3419c0,-118 12,-212 36,-284 25,-72 61,-127 108,-166 48,-39 108,-58 180,-58 53,0 100,11 140,32 40,22 74,53 99,93 26,41 47,90 62,148 15,58 22,136 22,235 0,116 -12,211 -36,282 -24,72 -60,127 -107,166 -48,39 -108,59 -180,59 -96,0 -171,-34 -226,-103 -65,-83 -98,-218 -98,-404zm125 0c0,164 19,272 57,326 39,54 86,81 142,81 56,0 103,-27 141,-81 38,-54 57,-163 57,-326 0,-163 -19,-272 -57,-326 -38,-54 -86,-81 -143,-81 -56,0 -101,24 -134,72 -42,60 -63,172 -63,335z"/>
    <path id="4" class="fil1" d="M366 7513l-122 0 0 -778c-29,28 -68,56 -115,84 -48,28 -91,49 -129,63l0 -118c68,-32 128,-71 179,-116 51,-46 87,-90 109,-133l78 0 0 998z"/>
    <path id="5" class="fil1" d="M1320 7396l0 117 -658 0c-1,-30 4,-58 14,-85 17,-45 44,-89 82,-132 37,-44 90,-94 159,-150 108,-89 181,-159 219,-211 38,-51 58,-101 58,-147 0,-48 -18,-89 -52,-122 -35,-33 -81,-50 -136,-50 -59,0 -106,18 -142,53 -35,35 -53,83 -53,146l-125 -13c8,-93 41,-165 97,-214 56,-49 131,-73 226,-73 95,0 170,26 226,79 56,53 83,119 83,197 0,40 -8,79 -24,117 -16,39 -43,79 -81,122 -38,42 -101,101 -188,175 -73,61 -121,103 -141,125 -21,22 -38,44 -52,66l488 0z"/>
    <path id="6" class="fil1" d="M1517 7513l0 -139 139 0 0 139c0,51 -9,92 -27,123 -18,32 -47,56 -87,74l-33 -53c26,-11 45,-28 57,-50 12,-22 19,-53 20,-94l-69 0z"/>
    <path id="7" class="fil1" d="M1837 7252l128 -10c10,62 31,109 66,140 34,32 76,47 125,47 59,0 109,-22 150,-66 40,-44 60,-103 60,-176 0,-70 -19,-125 -58,-165 -38,-40 -89,-60 -153,-60 -40,0 -75,9 -106,27 -32,18 -56,41 -74,70l-115 -17 95 -510 493 0 0 116 -395 0 -53 268c59,-42 122,-63 187,-63 86,0 159,31 219,91 59,60 89,137 89,231 0,90 -26,168 -78,233 -64,81 -151,121 -261,121 -90,0 -164,-25 -221,-76 -57,-51 -90,-118 -98,-201z"/>
    <path id="8" class="fil1" d="M366 11116l-122 0 0 -777c-29,28 -68,56 -115,84 -48,28 -91,49 -129,63l0 -118c68,-32 128,-71 179,-117 51,-45 87,-89 109,-132l78 0 0 997z"/>
    <path id="9" class="fil1" d="M680 10626c0,-117 12,-212 36,-284 24,-72 60,-127 108,-166 47,-38 107,-57 179,-57 54,0 100,10 141,32 40,21 73,52 99,93 26,40 47,89 61,147 15,58 23,137 23,235 0,117 -12,211 -36,283 -24,71 -60,127 -107,166 -48,38 -108,58 -181,58 -95,0 -170,-34 -225,-102 -65,-84 -98,-218 -98,-405zm125 0c0,164 19,273 57,326 38,54 85,81 141,81 56,0 104,-27 142,-81 38,-54 57,-163 57,-326 0,-163 -19,-272 -57,-325 -38,-54 -86,-81 -143,-81 -56,0 -101,24 -134,71 -42,60 -63,172 -63,335z"/>
    <path id="10" class="fil1" d="M1517 11116l0 -139 139 0 0 139c0,51 -9,93 -27,124 -18,32 -47,56 -87,73l-33 -52c26,-12 45,-28 57,-50 12,-22 19,-54 20,-95l-69 0z"/>
    <path id="11" class="fil1" d="M1837 10626c0,-117 12,-212 36,-284 25,-72 61,-127 108,-166 48,-38 108,-57 180,-57 53,0 100,10 140,32 40,21 74,52 99,93 26,40 47,89 62,147 15,58 22,137 22,235 0,117 -12,211 -36,283 -24,71 -60,127 -107,166 -48,38 -108,58 -180,58 -96,0 -171,-34 -226,-102 -65,-84 -98,-218 -98,-405zm125 0c0,164 19,273 57,326 39,54 86,81 142,81 56,0 103,-27 141,-81 38,-54 57,-163 57,-326 0,-163 -19,-272 -57,-325 -38,-54 -86,-81 -143,-81 -56,0 -101,24 -134,71 -42,60 -63,172 -63,335z"/>
    <path id="12" class="fil1" d="M1314 13969l-120 10c-11,-48 -27,-83 -47,-105 -33,-34 -74,-52 -123,-52 -39,0 -73,11 -103,33 -38,28 -69,68 -91,122 -22,54 -34,131 -35,230 30,-45 66,-78 108,-100 43,-21 87,-32 134,-32 81,0 151,30 208,90 57,60 86,137 86,232 0,62 -13,120 -40,174 -27,53 -64,94 -111,123 -47,28 -101,43 -160,43 -102,0 -185,-38 -249,-113 -64,-74 -96,-198 -96,-369 0,-192 35,-332 106,-419 62,-76 146,-114 251,-114 78,0 142,22 192,66 50,44 80,104 90,181zm-499 429c0,42 9,82 27,121 17,38 42,67 74,87 32,20 66,31 102,31 52,0 96,-21 133,-63 37,-41 55,-98 55,-169 0,-69 -18,-123 -55,-163 -36,-39 -82,-59 -138,-59 -55,0 -102,20 -141,59 -38,40 -57,92 -57,156z"/>
    <path id="13" class="fil1" d="M1517 14720l0 -139 139 0 0 139c0,51 -9,92 -27,124 -18,31 -47,56 -87,73l-33 -53c26,-11 45,-28 57,-50 12,-21 19,-53 20,-94l-69 0z"/>
    <path id="14" class="fil1" d="M1837 14459l128 -10c10,63 31,109 66,141 34,31 76,47 125,47 59,0 109,-23 150,-67 40,-44 60,-103 60,-176 0,-70 -19,-124 -58,-165 -38,-40 -89,-60 -153,-60 -40,0 -75,9 -106,27 -32,18 -56,42 -74,70l-115 -16 95 -511 493 0 0 116 -395 0 -53 268c59,-41 122,-62 187,-62 86,0 159,30 219,90 59,60 89,137 89,232 0,90 -26,167 -78,233 -64,80 -151,121 -261,121 -90,0 -164,-26 -221,-77 -57,-50 -90,-117 -98,-201z"/>
    <path id="15" class="fil1" d="M680 18063l128 -10c9,62 31,109 65,140 35,32 77,47 126,47 59,0 109,-22 149,-66 41,-44 61,-103 61,-176 0,-70 -19,-125 -58,-165 -39,-40 -90,-60 -153,-60 -40,0 -75,9 -107,27 -31,18 -55,41 -73,70l-116 -17 96 -510 493 0 0 116 -396 0 -53 268c60,-42 122,-63 188,-63 86,0 159,31 219,91 59,60 89,137 89,231 0,90 -26,168 -79,234 -63,80 -150,120 -260,120 -90,0 -164,-25 -221,-76 -57,-50 -90,-118 -98,-201z"/>
    <path id="16" class="fil1" d="M1517 18324l0 -139 139 0 0 139c0,51 -9,92 -27,124 -18,31 -47,56 -87,73l-33 -53c26,-11 45,-28 57,-50 12,-22 19,-53 20,-94l-69 0z"/>
    <path id="17" class="fil1" d="M1837 17833c0,-117 12,-212 36,-283 25,-72 61,-128 108,-166 48,-39 108,-58 180,-58 53,0 100,11 140,32 40,22 74,53 99,93 26,40 47,90 62,148 15,58 22,136 22,234 0,117 -12,211 -36,283 -24,72 -60,127 -107,166 -48,39 -108,58 -180,58 -96,0 -171,-34 -226,-102 -65,-83 -98,-218 -98,-405zm125 1c0,163 19,272 57,326 39,54 86,80 142,80 56,0 103,-27 141,-81 38,-54 57,-162 57,-325 0,-164 -19,-272 -57,-326 -38,-54 -86,-81 -143,-81 -56,0 -101,24 -134,71 -42,61 -63,173 -63,336z"/>
    <path id="18" class="fil1" d="M1320 21811l0 116 -658 0c-1,-29 4,-57 14,-85 17,-44 44,-88 82,-132 37,-43 90,-93 159,-150 108,-88 181,-158 219,-210 38,-52 58,-101 58,-147 0,-48 -18,-89 -52,-122 -35,-33 -81,-50 -136,-50 -59,0 -106,17 -142,53 -35,35 -53,83 -53,145l-125 -12c8,-94 41,-165 97,-214 56,-49 131,-73 226,-73 95,0 170,26 226,79 56,53 83,119 83,197 0,40 -8,79 -24,117 -16,39 -43,79 -81,122 -38,42 -101,100 -188,174 -73,62 -121,104 -141,126 -21,22 -38,44 -52,66l488 0z"/>
    <path id="19" class="fil1" d="M1517 21927l0 -138 139 0 0 138c0,51 -9,93 -27,124 -18,32 -47,56 -87,73l-33 -52c26,-12 45,-28 57,-50 12,-22 19,-54 20,-95l-69 0z"/>
    <path id="20" class="fil1" d="M1837 21666l128 -9c10,62 31,109 66,140 34,31 76,47 125,47 59,0 109,-22 150,-66 40,-45 60,-103 60,-177 0,-69 -19,-124 -58,-164 -38,-40 -89,-61 -153,-61 -40,0 -75,9 -106,27 -32,18 -56,42 -74,71l-115 -17 95 -511 493 0 0 117 -395 0 -53 268c59,-42 122,-63 187,-63 86,0 159,30 219,90 59,60 89,138 89,232 0,90 -26,168 -78,233 -64,81 -151,121 -261,121 -90,0 -164,-26 -221,-76 -57,-51 -90,-118 -98,-202z"/>
    <path id="21" class="fil1" d="M680 25041c0,-118 12,-212 36,-284 24,-72 60,-127 108,-166 47,-39 107,-58 179,-58 54,0 100,11 141,32 40,22 73,53 99,93 26,41 47,90 61,148 15,58 23,136 23,235 0,116 -12,211 -36,282 -24,72 -60,127 -107,166 -48,39 -108,59 -181,59 -95,0 -170,-34 -225,-103 -65,-83 -98,-218 -98,-404zm125 0c0,164 19,272 57,326 38,54 85,81 141,81 56,0 104,-27 142,-81 38,-54 57,-163 57,-326 0,-163 -19,-272 -57,-326 -38,-54 -86,-80 -143,-80 -56,0 -101,23 -134,71 -42,60 -63,172 -63,335z"/>
    <path id="22" class="fil1" d="M1517 25531l0 -139 139 0 0 139c0,51 -9,92 -27,124 -18,31 -47,56 -87,73l-33 -53c26,-11 45,-28 57,-49 12,-22 19,-54 20,-95l-69 0z"/>
    <path id="23" class="fil1" d="M1837 25041c0,-118 12,-212 36,-284 25,-72 61,-127 108,-166 48,-39 108,-58 180,-58 53,0 100,11 140,32 40,22 74,53 99,93 26,41 47,90 62,148 15,58 22,136 22,235 0,116 -12,211 -36,282 -24,72 -60,127 -107,166 -48,39 -108,59 -180,59 -96,0 -171,-34 -226,-103 -65,-83 -98,-218 -98,-404zm125 0c0,164 19,272 57,326 39,54 86,81 142,81 56,0 103,-27 141,-81 38,-54 57,-163 57,-326 0,-163 -19,-272 -57,-326 -38,-54 -86,-80 -143,-80 -56,0 -101,23 -134,71 -42,60 -63,172 -63,335z"/>
    <rect class="fil0 str0" x="3768" y="3580" width="51051" height="3583"/>
    <rect class="fil0 str0" x="3768" y="7164" width="51051" height="3583"/>
   </g>
   <g>
    <rect class="fil2" x="46545" y="4821" width="6327" height="20257"/>
    <rect class="fil2" x="36325" y="16392" width="6327" height="8687"/>
    <rect class="fil2" x="26203" y="17827" width="6327" height="7251"/>
    <rect class="fil2" x="16032" y="23679" width="6327" height="1399"/>
    <path class="fil1" d="M9203 27210l-132 0 0 -837c-31,31 -73,61 -124,91 -52,30 -98,53 -139,68l0 -127c74,-35 138,-77 193,-126 55,-49 94,-96 117,-143l85 0 0 1074z"/>
    <path id="1" class="fil1" d="M19551 27085l0 125 -708 0c-1,-31 4,-62 15,-91 18,-48 48,-96 88,-142 40,-47 97,-101 171,-162 116,-95 195,-170 236,-226 41,-56 62,-109 62,-158 0,-53 -19,-96 -56,-132 -37,-36 -86,-54 -146,-54 -64,0 -114,19 -153,57 -38,38 -57,90 -57,157l-135 -14c9,-100 44,-177 105,-230 60,-52 141,-79 243,-79 102,0 184,29 244,86 60,57 89,127 89,212 0,42 -8,84 -26,126 -17,41 -47,85 -87,131 -41,45 -108,108 -203,188 -78,66 -129,111 -152,135 -22,23 -40,47 -55,71l525 0z"/>
    <path id="2" class="fil1" d="M29015 26926l131 -17c15,74 41,128 77,161 36,33 80,49 133,49 62,0 115,-21 157,-64 42,-43 63,-96 63,-159 0,-60 -19,-110 -59,-150 -39,-39 -89,-58 -150,-58 -25,0 -56,5 -93,14l15 -115c8,1 16,2 21,2 56,0 106,-15 151,-44 45,-29 68,-74 68,-134 0,-48 -17,-88 -49,-120 -33,-32 -75,-47 -127,-47 -51,0 -93,16 -128,48 -34,33 -56,81 -65,146l-132 -24c16,-88 53,-157 110,-205 57,-49 128,-73 212,-73 58,0 112,13 161,38 50,25 87,59 113,102 26,43 39,89 39,138 0,46 -12,87 -37,125 -25,38 -62,68 -110,91 63,14 112,45 147,91 35,45 52,103 52,172 0,93 -34,173 -102,238 -68,65 -154,97 -258,97 -94,0 -172,-28 -234,-84 -62,-56 -97,-128 -106,-218z"/>
    <path id="3" class="fil1" d="M39587 27210l0 -255 -465 0 0 -121 489 -693 108 0 0 693 144 0 0 121 -144 0 0 255 -132 0zm0 -376l0 -481 -335 481 335 0z"/>
    <path id="4" class="fil1" d="M49320 26929l137 -10c10,67 34,117 71,151 37,34 82,51 135,51 64,0 117,-24 161,-72 43,-48 65,-111 65,-189 0,-75 -21,-134 -62,-178 -42,-43 -97,-65 -165,-65 -43,0 -81,10 -115,29 -33,20 -60,45 -79,76l-124 -18 103 -550 530 0 0 126 -425 0 -57 288c64,-45 131,-67 201,-67 93,0 172,32 236,97 64,65 96,148 96,249 0,97 -28,181 -85,251 -68,87 -162,130 -280,130 -97,0 -176,-27 -238,-82 -61,-54 -96,-126 -105,-217z"/>
    <path class="fil3" d="M48214 6400l0 -236 -429 0 0 -112 451 -641 100 0 0 641 133 0 0 112 -133 0 0 236 -122 0zm0 -348l0 -445 -310 445 310 0z"/>
    <path id="1" class="fil3" d="M48781 5864c-50,-19 -88,-45 -112,-79 -24,-34 -36,-75 -36,-123 0,-72 25,-132 77,-181 52,-49 120,-74 206,-74 86,0 156,25 208,75 52,51 79,112 79,184 0,45 -12,85 -36,119 -24,34 -60,60 -110,79 61,20 107,51 138,96 32,44 48,96 48,157 0,85 -30,155 -90,213 -60,58 -138,86 -235,86 -98,0 -176,-28 -236,-86 -60,-58 -89,-130 -89,-216 0,-64 16,-118 49,-162 32,-43 79,-72 139,-88zm-24 -206c0,47 15,85 44,115 30,29 69,44 118,44 47,0 85,-15 115,-44 30,-29 44,-66 44,-108 0,-45 -15,-82 -45,-113 -31,-30 -69,-45 -115,-45 -47,0 -86,15 -116,44 -30,30 -45,65 -45,107zm-40 457c0,34 8,68 24,100 16,32 40,57 73,75 33,18 67,27 105,27 58,0 106,-19 143,-56 38,-37 56,-85 56,-142 0,-59 -19,-107 -57,-145 -39,-38 -88,-57 -146,-57 -58,0 -105,18 -142,56 -38,38 -56,85 -56,142z"/>
    <path id="2" class="fil3" d="M49427 6400l0 -138 138 0 0 138c0,51 -9,92 -28,123 -18,31 -46,56 -86,73l-33 -53c26,-11 45,-28 57,-49 12,-22 19,-53 20,-94l-68 0z"/>
    <path id="3" class="fil3" d="M49745 6137l122 -16c14,69 37,119 70,149 34,30 75,46 123,46 58,0 106,-20 146,-60 39,-39 58,-88 58,-147 0,-56 -18,-102 -55,-138 -36,-36 -82,-54 -139,-54 -23,0 -51,4 -85,13l13 -106c8,1 15,1 20,1 52,0 98,-13 140,-40 41,-27 62,-68 62,-124 0,-45 -15,-81 -45,-111 -30,-29 -69,-43 -117,-43 -47,0 -87,15 -118,44 -32,30 -52,75 -61,135l-121 -22c15,-81 48,-145 101,-190 52,-44 118,-67 196,-67 54,0 104,12 149,35 45,23 80,54 104,94 24,40 36,83 36,128 0,42 -11,81 -34,116 -23,35 -57,62 -102,83 58,14 104,42 136,84 32,43 49,96 49,160 0,86 -32,159 -95,219 -63,60 -142,90 -239,90 -86,0 -158,-26 -216,-77 -57,-52 -90,-119 -98,-202z"/>
    <path id="4" class="fil3" d="M50535 5649c0,-71 18,-131 53,-180 36,-50 88,-74 155,-74 62,0 114,22 155,66 40,44 61,109 61,195 0,83 -21,148 -62,193 -41,45 -92,68 -152,68 -61,0 -110,-23 -150,-67 -40,-45 -60,-112 -60,-201zm212 -170c-31,0 -56,13 -76,39 -20,26 -30,73 -30,143 0,63 10,107 31,133 20,25 45,38 75,38 30,0 56,-13 76,-39 20,-26 29,-73 29,-142 0,-63 -10,-108 -30,-133 -20,-26 -45,-39 -75,-39zm0 957l539 -1041 99 0 -537 1041 -101 0zm426 -268c0,-71 17,-131 53,-181 35,-49 87,-73 155,-73 62,0 114,22 155,66 40,44 60,109 60,195 0,83 -20,148 -61,193 -41,45 -92,68 -153,68 -60,0 -110,-23 -149,-67 -40,-45 -60,-112 -60,-201zm212 -170c-31,0 -56,13 -76,39 -20,26 -30,74 -30,143 0,62 10,107 30,133 20,26 45,38 75,38 31,0 56,-12 76,-38 20,-26 30,-74 30,-143 0,-63 -10,-108 -30,-133 -20,-26 -45,-39 -75,-39z"/>
    <path id="5" class="fil3" d="M49471 7942l-121 0 0 -774c-30,28 -68,56 -115,84 -48,28 -91,49 -128,63l0 -118c67,-31 127,-70 178,-116 51,-45 87,-89 108,-132l78 0 0 993z"/>
    <path id="6" class="fil3" d="M50171 7942l0 -236 -429 0 0 -112 451 -641 100 0 0 641 133 0 0 112 -133 0 0 236 -122 0zm0 -348l0 -445 -310 445 310 0z"/>
    <path class="fil3" d="M38249 17833l0 116 -654 0c-1,-29 4,-57 14,-84 17,-45 44,-89 81,-132 37,-43 90,-92 159,-149 107,-88 179,-157 217,-209 39,-52 58,-100 58,-146 0,-48 -18,-89 -52,-122 -35,-33 -80,-50 -135,-50 -59,0 -106,18 -141,53 -35,35 -53,83 -53,145l-125 -13c9,-92 41,-163 97,-212 56,-49 131,-73 225,-73 94,0 170,26 225,79 55,52 83,118 83,195 0,40 -8,79 -24,117 -17,38 -43,79 -81,121 -38,42 -100,100 -187,174 -73,61 -120,103 -141,124 -20,22 -37,44 -51,66l485 0z"/>
    <path id="1" class="fil3" d="M38381 17461c0,-116 12,-210 36,-282 24,-71 59,-126 107,-165 47,-38 107,-57 178,-57 53,0 100,10 140,32 40,21 73,52 99,92 26,40 46,89 61,147 15,58 22,136 22,233 0,116 -12,210 -36,282 -23,71 -59,126 -106,165 -48,38 -107,58 -180,58 -95,0 -169,-34 -224,-102 -65,-83 -97,-217 -97,-403zm124 1c0,163 19,271 57,324 38,54 85,80 140,80 56,0 103,-27 141,-80 38,-54 57,-162 57,-324 0,-163 -19,-271 -57,-324 -38,-54 -85,-81 -142,-81 -56,0 -100,24 -134,71 -41,60 -62,172 -62,334z"/>
    <path id="2" class="fil3" d="M39213 17949l0 -138 138 0 0 138c0,51 -9,92 -27,124 -18,31 -47,55 -86,72l-33 -52c26,-11 45,-28 57,-50 12,-22 19,-53 20,-94l-69 0z"/>
    <path id="3" class="fil3" d="M39539 17089l0 -116 639 0 0 94c-63,67 -125,156 -187,267 -62,111 -110,226 -143,343 -25,83 -40,174 -47,272l-124 0c1,-78 16,-172 46,-282 29,-110 71,-217 125,-319 55,-102 113,-189 174,-259l-483 0z"/>
    <path id="4" class="fil3" d="M40322 17198c0,-70 17,-130 53,-180 36,-49 87,-74 155,-74 62,0 114,22 154,67 41,44 62,109 62,194 0,84 -21,148 -62,193 -42,46 -92,68 -153,68 -60,0 -110,-22 -149,-67 -40,-44 -60,-111 -60,-201zm211 -169c-30,0 -55,12 -75,38 -20,26 -30,74 -30,143 0,63 10,108 30,133 21,26 46,39 75,39 31,0 56,-13 76,-39 20,-26 30,-73 30,-142 0,-64 -10,-108 -30,-134 -20,-26 -45,-38 -76,-38zm1 956l539 -1041 99 0 -538 1041 -100 0zm425 -268c0,-71 18,-131 54,-180 35,-49 87,-74 155,-74 62,0 114,22 154,67 41,44 61,109 61,194 0,84 -20,148 -61,193 -42,46 -93,68 -153,68 -60,0 -110,-22 -150,-67 -40,-44 -60,-112 -60,-201zm212 -169c-30,0 -55,12 -75,38 -20,26 -30,74 -30,143 0,63 10,107 30,133 20,26 45,39 75,39 31,0 56,-13 76,-39 20,-26 30,-73 30,-142 0,-64 -10,-108 -30,-134 -20,-26 -46,-38 -76,-38z"/>
    <path id="5" class="fil3" d="M39817 18745l-120 9c-11,-47 -26,-82 -46,-104 -33,-34 -74,-52 -122,-52 -39,0 -74,11 -103,33 -39,28 -68,68 -91,121 -22,54 -33,130 -34,229 29,-45 65,-78 107,-99 42,-22 87,-33 133,-33 81,0 150,30 207,90 57,60 86,136 86,231 0,62 -14,120 -40,173 -27,53 -64,94 -111,122 -47,29 -100,43 -159,43 -101,0 -184,-37 -248,-112 -63,-74 -95,-197 -95,-367 0,-191 35,-330 106,-417 61,-75 144,-113 249,-113 78,0 142,22 191,65 50,44 80,104 90,181zm-497 426c0,42 9,82 27,120 17,38 42,67 74,87 32,20 65,31 101,31 52,0 96,-21 132,-63 37,-41 55,-97 55,-168 0,-69 -18,-122 -54,-162 -36,-39 -82,-59 -138,-59 -55,0 -101,20 -140,59 -38,40 -57,91 -57,155z"/>
    <path class="fil3" d="M27891 19379l-122 0 0 -774c-29,28 -67,56 -115,84 -47,28 -90,49 -127,63l0 -118c67,-31 127,-70 178,-116 50,-45 87,-89 108,-132l78 0 0 993z"/>
    <path id="1" class="fil3" d="M28210 18519l0 -116 639 0 0 94c-63,67 -125,156 -187,267 -62,111 -109,225 -143,343 -24,82 -40,173 -47,272l-124 0c1,-78 17,-172 46,-282 29,-111 71,-217 125,-319 55,-103 113,-189 174,-259l-483 0z"/>
    <path id="2" class="fil3" d="M29036 19379l0 -138 138 0 0 138c0,51 -9,92 -27,123 -18,31 -47,56 -86,73l-34 -53c26,-11 45,-27 57,-49 12,-22 19,-53 21,-94l-69 0z"/>
    <path id="3" class="fil3" d="M29991 19263l0 116 -655 0c0,-29 4,-57 15,-85 16,-44 43,-88 80,-131 38,-43 90,-93 159,-149 107,-88 180,-158 218,-209 38,-52 57,-101 57,-147 0,-48 -17,-88 -52,-121 -34,-33 -79,-50 -135,-50 -58,0 -105,18 -140,53 -36,34 -53,83 -54,144l-124 -12c8,-93 41,-164 96,-213 56,-48 131,-73 225,-73 95,0 170,27 225,79 56,53 83,118 83,196 0,40 -8,78 -24,117 -16,38 -43,78 -81,121 -37,42 -100,100 -187,174 -73,61 -119,102 -140,124 -21,22 -38,44 -51,66l485 0z"/>
    <path id="4" class="fil3" d="M30144 18628c0,-71 18,-131 54,-180 35,-50 87,-74 154,-74 63,0 114,22 155,66 40,44 61,109 61,195 0,84 -21,148 -62,193 -41,45 -92,68 -152,68 -60,0 -110,-23 -150,-67 -40,-44 -60,-112 -60,-201zm212 -170c-30,0 -55,13 -75,39 -20,26 -31,74 -31,143 0,63 11,107 31,133 20,26 45,38 75,38 30,0 56,-12 76,-38 20,-26 30,-74 30,-143 0,-63 -10,-108 -31,-133 -20,-26 -45,-39 -75,-39zm1 957l539 -1041 99 0 -538 1041 -100 0zm425 -268c0,-71 18,-131 53,-180 36,-49 88,-74 155,-74 63,0 114,22 155,66 40,44 61,109 61,195 0,84 -21,148 -62,193 -41,45 -92,68 -153,68 -60,0 -109,-23 -149,-67 -40,-45 -60,-112 -60,-201zm212 -170c-31,0 -56,13 -76,39 -20,26 -30,74 -30,143 0,62 10,107 31,133 20,26 44,38 74,38 31,0 57,-12 77,-38 20,-26 29,-74 29,-143 0,-63 -10,-108 -30,-133 -20,-26 -45,-39 -75,-39z"/>
    <path id="5" class="fil3" d="M29009 20661l127 -9c9,62 31,108 65,139 34,31 76,47 125,47 59,0 108,-22 149,-66 40,-44 60,-103 60,-175 0,-69 -20,-124 -58,-164 -38,-40 -89,-60 -153,-60 -39,0 -74,9 -105,27 -31,18 -56,41 -74,70l-114 -17 95 -508 490 0 0 116 -393 0 -53 267c59,-42 121,-63 186,-63 86,0 159,30 218,90 59,60 89,137 89,231 0,89 -26,166 -78,231 -63,80 -150,121 -259,121 -90,0 -163,-26 -220,-76 -57,-51 -89,-117 -97,-201z"/>
    <path class="fil4" d="M17694 21548l121 -17c14,69 38,119 71,149 33,31 74,46 123,46 57,0 106,-20 145,-59 39,-40 59,-89 59,-147 0,-56 -18,-102 -55,-138 -36,-37 -83,-55 -139,-55 -23,0 -52,5 -86,14l14 -106c8,0 15,1 19,1 52,0 99,-14 140,-41 42,-27 63,-68 63,-124 0,-44 -16,-81 -46,-110 -30,-29 -69,-44 -116,-44 -48,0 -87,15 -119,45 -31,30 -51,75 -60,134l-122 -22c15,-81 49,-144 101,-189 53,-45 118,-67 197,-67 53,0 103,11 148,34 46,23 81,55 105,95 24,40 36,82 36,127 0,43 -12,81 -34,116 -24,35 -58,63 -102,84 58,13 103,41 136,84 32,42 48,95 48,159 0,86 -31,160 -94,220 -63,60 -143,90 -239,90 -87,0 -159,-26 -216,-78 -58,-52 -90,-119 -98,-201z"/>
    <path id="1" class="fil4" d="M18526 21810l0 -138 138 0 0 138c0,51 -9,92 -27,123 -18,32 -47,56 -86,73l-33 -52c26,-12 45,-28 57,-50 12,-22 19,-53 20,-94l-69 0z"/>
    <path id="2" class="fil4" d="M19233 21810l0 -236 -429 0 0 -112 451 -640 99 0 0 640 134 0 0 112 -134 0 0 236 -121 0zm0 -348l0 -444 -310 444 310 0z"/>
    <path id="3" class="fil4" d="M19635 21059c0,-70 17,-130 53,-180 36,-49 87,-74 155,-74 62,0 114,22 154,66 41,45 62,110 62,195 0,84 -21,148 -62,193 -42,45 -92,68 -153,68 -60,0 -110,-22 -149,-67 -40,-44 -60,-111 -60,-201zm211 -170c-30,0 -55,13 -75,39 -20,26 -30,74 -30,143 0,63 10,108 30,133 21,26 46,39 75,39 31,0 56,-13 76,-39 20,-26 30,-73 30,-142 0,-64 -10,-108 -30,-134 -20,-26 -45,-39 -76,-39zm1 957l539 -1041 99 0 -538 1041 -100 0zm425 -268c0,-71 18,-131 54,-180 35,-49 87,-74 155,-74 62,0 114,22 154,67 41,44 61,109 61,194 0,84 -20,148 -61,193 -42,45 -93,68 -153,68 -60,0 -110,-22 -150,-67 -40,-45 -60,-112 -60,-201zm212 -170c-30,0 -55,13 -75,39 -20,26 -30,74 -30,143 0,63 10,107 30,133 20,26 45,39 75,39 31,0 56,-13 76,-39 20,-26 30,-73 30,-142 0,-64 -10,-108 -30,-134 -20,-26 -45,-39 -76,-39z"/>
    <path id="4" class="fil4" d="M19339 23352l-122 0 0 -773c-29,28 -68,56 -115,84 -47,27 -90,48 -128,62l0 -117c68,-32 127,-71 178,-116 51,-45 87,-89 108,-132l79 0 0 992z"/>
    <rect class="fil2" x="5812" y="20753" width="6327" height="4325"/>
    <path class="fil3" d="M7500 22412l-122 0 0 -773c-29,28 -67,56 -115,83 -47,28 -90,49 -128,63l0 -117c68,-32 128,-71 179,-116 50,-46 86,-89 108,-132l78 0 0 992z"/>
    <path id="1" class="fil3" d="M7812 21924c0,-116 12,-210 36,-282 24,-71 60,-126 107,-165 47,-38 107,-57 179,-57 53,0 99,10 139,32 40,21 74,52 99,92 26,40 46,89 61,147 15,58 22,136 22,233 0,116 -12,210 -35,282 -24,71 -60,126 -107,165 -47,38 -107,58 -179,58 -95,0 -170,-34 -224,-102 -65,-83 -98,-217 -98,-403zm124 1c0,163 19,271 57,324 38,54 85,80 141,80 55,0 102,-27 140,-80 38,-54 57,-162 57,-324 0,-163 -19,-271 -57,-324 -37,-54 -85,-81 -142,-81 -55,0 -100,24 -133,71 -42,60 -63,172 -63,334z"/>
    <path id="2" class="fil3" d="M8645 22412l0 -138 138 0 0 138c0,51 -9,92 -27,124 -18,31 -47,55 -86,72l-34 -52c26,-11 45,-28 57,-50 12,-22 19,-53 20,-94l-68 0z"/>
    <path id="3" class="fil3" d="M8963 22150l122 -17c14,69 37,119 71,149 33,31 74,46 122,46 58,0 107,-20 146,-59 39,-40 58,-89 58,-147 0,-56 -18,-102 -54,-138 -37,-36 -83,-55 -139,-55 -23,0 -52,5 -86,14l13 -106c8,1 15,1 20,1 52,0 98,-14 140,-41 41,-26 62,-68 62,-124 0,-44 -15,-81 -45,-110 -30,-29 -69,-44 -117,-44 -47,0 -87,15 -118,45 -32,30 -52,75 -61,135l-121 -23c15,-81 48,-144 101,-189 52,-45 118,-67 196,-67 54,0 104,11 149,34 46,23 80,55 104,95 24,40 36,82 36,127 0,43 -11,81 -34,116 -23,35 -57,63 -102,84 59,13 104,41 136,84 33,42 49,95 49,159 0,86 -32,160 -95,220 -63,60 -142,90 -238,90 -87,0 -159,-26 -216,-78 -58,-52 -91,-119 -99,-201z"/>
    <path id="4" class="fil3" d="M9753 21661c0,-70 18,-130 53,-180 36,-49 88,-74 155,-74 62,0 114,22 155,67 40,44 61,109 61,194 0,84 -21,148 -62,193 -41,46 -92,68 -152,68 -60,0 -110,-22 -150,-67 -40,-44 -60,-111 -60,-201zm212 -169c-30,0 -55,12 -75,38 -20,26 -31,74 -31,143 0,63 11,108 31,133 20,26 45,39 75,39 30,0 56,-13 76,-39 20,-26 30,-73 30,-142 0,-64 -11,-108 -31,-134 -20,-26 -45,-38 -75,-38zm0 956l539 -1041 99 0 -537 1041 -101 0zm426 -268c0,-71 18,-131 53,-180 36,-49 87,-74 155,-74 62,0 114,22 155,67 40,44 61,109 61,194 0,84 -21,148 -62,193 -41,46 -92,68 -153,68 -60,0 -110,-22 -149,-67 -40,-44 -60,-112 -60,-201zm212 -169c-31,0 -56,12 -76,38 -20,26 -30,74 -30,143 0,63 10,107 31,133 20,26 44,39 74,39 31,0 56,-13 76,-39 20,-26 30,-73 30,-142 0,-64 -10,-108 -30,-134 -20,-26 -45,-38 -75,-38z"/>
    <path id="5" class="fil3" d="M8618 23692l121 -16c14,69 37,118 71,149 33,30 74,45 123,45 57,0 106,-20 145,-59 39,-40 59,-89 59,-147 0,-56 -19,-102 -55,-138 -37,-36 -83,-55 -139,-55 -23,0 -52,5 -86,14l14 -106c8,1 14,1 19,1 52,0 99,-13 140,-40 42,-27 62,-69 62,-125 0,-44 -15,-81 -45,-110 -30,-29 -69,-44 -117,-44 -47,0 -86,15 -118,45 -31,30 -52,75 -61,135l-121 -22c15,-82 48,-145 101,-190 53,-45 118,-67 196,-67 54,0 104,11 149,35 46,23 81,54 104,94 25,40 37,82 37,127 0,43 -12,81 -35,116 -23,35 -57,63 -102,84 59,13 104,41 137,84 32,42 48,96 48,159 0,87 -32,160 -94,220 -63,60 -143,90 -239,90 -87,0 -159,-26 -216,-78 -58,-52 -90,-119 -98,-201z"/>
   </g>
  </g>
  <path class="fil5" d="M23435 1072l0 142 -800 0c-1,-36 4,-71 17,-104 21,-54 54,-108 99,-160 45,-53 110,-114 194,-183 131,-107 220,-193 266,-256 47,-63 70,-122 70,-178 0,-59 -21,-109 -63,-149 -42,-41 -98,-61 -165,-61 -72,0 -129,22 -173,64 -43,43 -64,102 -65,178l-152 -16c11,-113 50,-200 118,-260 69,-59 160,-89 275,-89 116,0 208,32 275,97 68,64 102,144 102,239 0,48 -10,96 -30,142 -20,47 -52,97 -98,148 -46,52 -123,123 -229,213 -89,75 -147,126 -172,152 -25,27 -46,54 -63,81l594 0z"/>
  <path id="1" class="fil5" d="M23617 933l142 -11c12,66 35,115 69,145 34,30 78,45 131,45 46,0 86,-10 120,-31 35,-21 63,-49 85,-84 21,-35 40,-82 55,-142 14,-59 22,-119 22,-181 0,-6 0,-17 -1,-30 -30,47 -70,86 -121,115 -51,30 -107,44 -167,44 -100,0 -184,-36 -253,-108 -69,-73 -104,-168 -104,-287 0,-123 36,-221 109,-296 72,-75 162,-112 271,-112 78,0 150,21 215,64 65,42 114,102 148,180 34,79 51,192 51,340 0,155 -17,278 -51,369 -33,92 -83,161 -149,209 -66,48 -144,72 -233,72 -94,0 -171,-26 -231,-79 -60,-53 -96,-127 -108,-222zm606 -533c0,-85 -22,-152 -67,-202 -45,-50 -100,-75 -164,-75 -66,0 -124,27 -172,81 -49,53 -73,123 -73,209 0,76 23,139 69,187 46,48 104,72 172,72 69,0 125,-24 169,-72 44,-48 66,-115 66,-200z"/>
  <path id="2" class="fil5" d="M25042 1214l0 -876 133 0 0 134c34,-62 66,-103 94,-123 29,-20 61,-30 96,-30 50,0 101,16 153,47l-53 137c-36,-20 -72,-30 -108,-30 -33,0 -62,9 -87,29 -26,19 -44,46 -55,81 -17,52 -25,110 -25,173l0 458 -148 0z"/>
  <path id="3" class="fil5" d="M26203 930l153 20c-24,89 -68,159 -133,208 -66,49 -149,74 -251,74 -127,0 -229,-39 -303,-118 -75,-79 -113,-189 -113,-331 0,-147 38,-261 114,-342 75,-82 174,-122 294,-122 117,0 212,40 286,119 74,80 111,192 111,336 0,9 0,22 0,40l-653 0c6,95 33,169 82,220 49,51 110,77 182,77 55,0 101,-15 139,-43 39,-29 69,-75 92,-138zm-486 -238l488 0c-7,-74 -26,-129 -56,-166 -47,-57 -109,-85 -184,-85 -68,0 -125,22 -171,68 -47,45 -72,106 -77,183z"/>
  <path id="4" class="fil5" d="M26485 952l147 -24c8,59 31,104 69,136 37,31 90,47 158,47 68,0 119,-14 152,-42 33,-28 49,-60 49,-98 0,-33 -14,-60 -44,-79 -21,-13 -71,-30 -152,-50 -108,-27 -184,-51 -226,-71 -42,-20 -73,-48 -95,-83 -22,-35 -33,-74 -33,-117 0,-39 9,-75 27,-109 18,-33 42,-60 73,-82 23,-17 54,-31 94,-43 40,-12 83,-18 128,-18 69,0 129,10 181,30 52,20 90,47 115,80 24,34 41,80 51,136l-146 21c-6,-46 -25,-82 -57,-107 -31,-26 -76,-38 -133,-38 -68,0 -117,11 -146,33 -29,23 -43,49 -43,79 0,19 6,37 18,52 12,16 31,29 57,40 14,5 58,18 130,38 105,28 178,51 220,68 41,18 74,44 98,78 24,34 35,76 35,127 0,49 -14,95 -43,139 -29,44 -71,77 -125,101 -54,24 -116,36 -185,36 -113,0 -200,-24 -260,-71 -59,-47 -97,-117 -114,-209z"/>
  <path id="5" class="fil5" d="M27388 1549l0 -1211 135 0 0 115c32,-45 68,-78 108,-101 40,-22 89,-33 146,-33 74,0 140,19 197,58 58,38 101,92 130,162 29,70 43,147 43,230 0,89 -16,170 -48,241 -32,72 -78,127 -140,165 -61,38 -125,57 -193,57 -49,0 -94,-10 -133,-31 -39,-21 -71,-47 -97,-79l0 427 -148 0zm135 -768c0,112 23,195 68,249 46,54 101,81 165,81 66,0 123,-28 169,-84 47,-56 71,-142 71,-259 0,-111 -23,-194 -69,-250 -46,-55 -101,-83 -164,-83 -63,0 -119,30 -167,89 -49,59 -73,144 -73,257z"/>
  <path id="6" class="fil5" d="M28271 776c0,-162 45,-282 135,-360 75,-65 167,-97 276,-97 120,0 218,39 295,118 76,79 114,187 114,326 0,113 -17,201 -50,265 -34,65 -83,115 -148,151 -65,35 -135,53 -211,53 -123,0 -222,-39 -298,-118 -75,-78 -113,-191 -113,-338zm152 0c0,112 24,196 73,251 49,56 111,84 186,84 73,0 135,-28 184,-84 49,-56 73,-141 73,-256 0,-108 -25,-190 -74,-245 -49,-56 -110,-84 -183,-84 -75,0 -137,28 -186,83 -49,56 -73,139 -73,251z"/>
  <path id="7" class="fil5" d="M29206 952l147 -24c8,59 31,104 69,136 38,31 91,47 158,47 68,0 119,-14 152,-42 33,-28 50,-60 50,-98 0,-33 -15,-60 -45,-79 -21,-13 -71,-30 -152,-50 -108,-27 -183,-51 -225,-71 -42,-20 -74,-48 -96,-83 -22,-35 -32,-74 -32,-117 0,-39 9,-75 26,-109 18,-33 42,-60 73,-82 23,-17 55,-31 94,-43 40,-12 83,-18 128,-18 69,0 129,10 181,30 52,20 90,47 115,80 24,34 42,80 51,136l-145 21c-7,-46 -26,-82 -57,-107 -32,-26 -76,-38 -134,-38 -68,0 -116,11 -145,33 -29,23 -44,49 -44,79 0,19 6,37 18,52 12,16 31,29 57,40 15,5 58,18 131,38 104,28 177,51 219,68 42,18 74,44 98,78 24,34 36,76 36,127 0,49 -15,95 -44,139 -29,44 -70,77 -125,101 -54,24 -116,36 -184,36 -114,0 -201,-24 -261,-71 -59,-47 -97,-117 -114,-209z"/>
  <path id="8" class="fil5" d="M30432 1081l20 131c-42,9 -79,13 -112,13 -54,0 -95,-8 -125,-25 -30,-17 -50,-40 -63,-68 -12,-27 -18,-86 -18,-175l0 -505 -109 0 0 -114 109 0 0 -217 149 -89 0 306 149 0 0 114 -149 0 0 513c0,43 3,70 8,82 5,12 13,22 25,29 12,7 29,11 51,11 16,0 38,-2 65,-6z"/>
  <path id="9" class="fil5" d="M31150 1104c-55,47 -108,80 -159,99 -51,20 -105,29 -164,29 -96,0 -170,-23 -222,-70 -52,-47 -78,-107 -78,-180 0,-42 10,-82 30,-117 19,-35 45,-64 76,-85 32,-21 68,-38 107,-49 30,-7 74,-15 133,-22 119,-14 208,-31 265,-51 0,-20 0,-33 0,-38 0,-60 -14,-103 -42,-128 -38,-33 -94,-50 -169,-50 -70,0 -122,13 -155,37 -34,25 -58,68 -74,130l-145 -20c13,-62 35,-112 65,-151 30,-38 74,-67 132,-88 57,-21 123,-31 199,-31 75,0 136,9 183,26 46,18 81,40 103,67 22,27 37,60 46,101 5,25 8,71 8,137l0 196c0,138 3,225 9,262 6,37 18,72 36,106l-155 0c-15,-32 -25,-68 -29,-110zm-12 -329c-54,22 -135,40 -243,55 -61,9 -104,19 -130,30 -25,11 -44,27 -58,48 -14,21 -21,44 -21,70 0,39 15,72 45,98 30,26 74,40 132,40 57,0 108,-13 152,-38 45,-25 78,-59 99,-102 16,-33 24,-82 24,-147l0 -54z"/>
  <path id="10" class="fil5" d="M31458 952l147 -24c8,59 31,104 68,136 38,31 91,47 159,47 68,0 118,-14 152,-42 33,-28 49,-60 49,-98 0,-33 -15,-60 -44,-79 -21,-13 -72,-30 -152,-50 -109,-27 -184,-51 -226,-71 -42,-20 -74,-48 -95,-83 -22,-35 -33,-74 -33,-117 0,-39 9,-75 27,-109 18,-33 42,-60 73,-82 23,-17 54,-31 94,-43 40,-12 82,-18 128,-18 68,0 129,10 180,30 52,20 91,47 115,80 25,34 42,80 51,136l-145 21c-6,-46 -25,-82 -57,-107 -31,-26 -76,-38 -134,-38 -67,0 -116,11 -145,33 -29,23 -44,49 -44,79 0,19 6,37 18,52 13,16 31,29 57,40 15,5 59,18 131,38 105,28 178,51 219,68 42,18 75,44 98,78 24,34 36,76 36,127 0,49 -14,95 -43,139 -29,44 -71,77 -125,101 -55,24 -116,36 -185,36 -114,0 -200,-24 -260,-71 -60,-47 -98,-117 -114,-209z"/>
 </g>
</svg>
