<?xml version="1.0" encoding="UTF-8"?>
<!DOCTYPE svg PUBLIC "-//W3C//DTD SVG 1.1//EN" "http://www.w3.org/Graphics/SVG/1.1/DTD/svg11.dtd">
<!-- Creator: CorelDRAW X8 -->
<svg xmlns="http://www.w3.org/2000/svg" xml:space="preserve" width="258.498mm" height="114.623mm" version="1.1" style="shape-rendering:geometricPrecision; text-rendering:geometricPrecision; image-rendering:optimizeQuality; fill-rule:evenodd; clip-rule:evenodd"
viewBox="0 0 68555 30399"
 xmlns:xlink="http://www.w3.org/1999/xlink">
 <defs>
  <style type="text/css">
   <![CDATA[
    .str0 {stroke:#A9ABAE;stroke-width:53.041}
    .fil0 {fill:#FEFEFE}
    .fil2 {fill:#009688}
    .fil3 {fill:#FEFEFE;fill-rule:nonzero}
    .fil1 {fill:#373435;fill-rule:nonzero}
    .fil4 {fill:#373435;fill-rule:nonzero}
   ]]>
  </style>
 </defs>
 <g id="Camada_x0020_1">
  <metadata id="CorelCorpID_0Corel-Layer"/>
  <g id="_2637983813776">
   <rect class="fil0 str0" x="4710" y="9795" width="63818" height="4479"/>
   <rect class="fil0 str0" x="4710" y="14274" width="63818" height="4479"/>
   <rect class="fil0 str0" x="4710" y="18753" width="63818" height="4479"/>
   <rect class="fil0 str0" x="4710" y="23232" width="63818" height="4479"/>
   <path class="fil1" d="M458 1247l-153 0 0 -972c-36,36 -85,70 -144,105 -60,35 -114,62 -161,79l0 -147c85,-40 160,-89 224,-146 64,-57 109,-112 136,-166l98 0 0 1247z"/>
   <path id="1" class="fil1" d="M850 921l160 -12c12,78 39,136 82,175 43,39 95,59 157,59 74,0 136,-28 187,-83 50,-55 75,-129 75,-220 0,-87 -24,-156 -72,-206 -48,-50 -112,-75 -192,-75 -49,0 -93,11 -133,33 -39,23 -69,52 -92,88l-144 -21 120 -638 615 0 0 146 -494 0 -66 335c74,-53 153,-79 234,-79 108,0 200,38 274,113 74,75 111,172 111,290 0,112 -32,209 -98,291 -79,101 -188,151 -325,151 -113,0 -205,-32 -276,-95 -72,-63 -113,-147 -123,-252z"/>
   <path id="2" class="fil1" d="M1897 1247l0 -173 173 0 0 173c0,64 -11,116 -34,155 -23,39 -59,70 -108,92l-42 -66c32,-15 56,-35 71,-63 16,-27 24,-66 26,-118l-86 0z"/>
   <path id="3" class="fil1" d="M2297 634c0,-146 15,-265 45,-354 30,-90 75,-159 135,-208 59,-48 134,-72 224,-72 67,0 125,13 176,40 50,27 91,66 124,116 32,51 58,112 76,185 19,72 28,170 28,293 0,146 -15,264 -45,354 -29,89 -74,159 -134,207 -59,49 -134,73 -225,73 -119,0 -213,-43 -282,-128 -81,-104 -122,-272 -122,-506zm156 1c0,204 24,340 71,407 48,68 107,101 177,101 70,0 129,-34 177,-101 47,-68 71,-203 71,-407 0,-205 -24,-340 -71,-407 -48,-68 -107,-101 -179,-101 -70,0 -126,29 -168,89 -52,75 -78,215 -78,419z"/>
   <path id="4" class="fil1" d="M458 5752l-153 0 0 -972c-36,35 -85,70 -144,105 -60,35 -114,62 -161,79l0 -147c85,-40 160,-89 224,-146 64,-57 109,-112 136,-166l98 0 0 1247z"/>
   <path id="5" class="fil1" d="M1650 5606l0 146 -822 0c-1,-37 5,-72 18,-106 21,-56 55,-111 101,-165 47,-54 113,-117 200,-187 134,-111 225,-199 273,-263 48,-65 72,-126 72,-184 0,-61 -22,-112 -65,-153 -43,-42 -100,-62 -170,-62 -73,0 -132,22 -177,66 -44,43 -66,104 -67,182l-156 -16c11,-117 51,-206 121,-267 71,-61 165,-92 283,-92 119,0 213,33 283,99 69,66 104,148 104,246 0,50 -10,99 -30,147 -21,48 -55,99 -102,152 -47,53 -125,126 -235,218 -91,77 -150,129 -176,157 -26,27 -48,55 -65,82l610 0z"/>
   <path id="6" class="fil1" d="M1897 5752l0 -173 173 0 0 173c0,64 -11,116 -34,155 -23,39 -59,70 -108,91l-42 -65c32,-15 56,-35 71,-63 16,-27 24,-66 26,-118l-86 0z"/>
   <path id="7" class="fil1" d="M2297 5426l159 -12c12,78 40,136 83,175 42,39 95,59 156,59 75,0 137,-28 187,-83 51,-55 76,-129 76,-220 0,-87 -24,-156 -72,-206 -49,-50 -113,-75 -192,-75 -50,0 -94,11 -133,33 -39,23 -70,52 -92,88l-144 -21 119 -638 616 0 0 146 -494 0 -66 335c74,-53 152,-79 234,-79 108,0 199,38 274,113 74,75 111,172 111,290 0,112 -33,209 -98,291 -79,101 -188,151 -326,151 -112,0 -204,-32 -276,-95 -71,-63 -112,-147 -122,-252z"/>
   <path id="8" class="fil1" d="M458 10257l-153 0 0 -972c-36,35 -85,70 -144,105 -60,35 -114,62 -161,79l0 -147c85,-40 160,-89 224,-146 64,-57 109,-112 136,-166l98 0 0 1247z"/>
   <path id="9" class="fil1" d="M850 9644c0,-146 15,-265 45,-354 31,-90 76,-159 135,-208 59,-48 134,-72 224,-72 67,0 125,13 176,40 50,27 92,66 124,116 33,51 58,112 77,185 18,72 28,170 28,293 0,146 -15,264 -45,354 -30,89 -75,159 -134,207 -60,49 -135,73 -226,73 -119,0 -213,-43 -281,-128 -82,-104 -123,-272 -123,-506zm156 1c0,204 24,340 72,407 47,68 106,101 176,101 70,0 129,-34 177,-101 48,-68 71,-203 71,-407 0,-205 -23,-340 -71,-408 -47,-67 -107,-100 -178,-100 -70,0 -126,29 -168,89 -53,75 -79,215 -79,419z"/>
   <path id="10" class="fil1" d="M1897 10257l0 -173 173 0 0 173c0,64 -11,116 -34,155 -23,39 -59,70 -108,91l-42 -65c32,-15 56,-35 71,-63 16,-27 24,-66 26,-118l-86 0z"/>
   <path id="11" class="fil1" d="M2297 9644c0,-146 15,-265 45,-354 30,-90 75,-159 135,-208 59,-48 134,-72 224,-72 67,0 125,13 176,40 50,27 91,66 124,116 32,51 58,112 76,185 19,72 28,170 28,293 0,146 -15,264 -45,354 -29,89 -74,159 -134,207 -59,49 -134,73 -225,73 -119,0 -213,-43 -282,-128 -81,-104 -122,-272 -122,-506zm156 1c0,204 24,340 71,407 48,68 107,101 177,101 70,0 129,-34 177,-101 47,-68 71,-203 71,-407 0,-205 -24,-340 -71,-408 -48,-67 -107,-100 -179,-100 -70,0 -126,29 -168,89 -52,75 -78,215 -78,419z"/>
   <path id="12" class="fil1" d="M1643 13824l-151 12c-14,-60 -33,-104 -58,-131 -41,-43 -93,-65 -153,-65 -49,0 -93,13 -130,41 -48,35 -85,85 -113,153 -28,67 -43,163 -44,287 37,-56 82,-98 135,-125 53,-27 109,-40 167,-40 102,0 189,37 261,112 71,75 107,171 107,290 0,78 -17,151 -51,218 -33,67 -79,118 -138,153 -59,36 -126,54 -200,54 -127,0 -231,-47 -311,-140 -80,-94 -121,-248 -121,-462 0,-240 45,-415 134,-524 77,-95 181,-142 313,-142 98,0 178,27 240,82 63,55 101,130 113,227zm-625 536c0,52 12,103 34,151 22,48 54,84 93,109 40,25 82,38 127,38 65,0 121,-26 167,-78 46,-52 69,-123 69,-212 0,-86 -23,-153 -69,-203 -45,-49 -103,-74 -173,-74 -69,0 -128,25 -176,74 -48,50 -72,114 -72,195z"/>
   <path id="13" class="fil1" d="M1897 14762l0 -173 173 0 0 173c0,64 -11,116 -34,155 -23,39 -59,70 -108,91l-42 -65c32,-15 56,-35 71,-63 16,-27 24,-66 26,-118l-86 0z"/>
   <path id="14" class="fil1" d="M2297 14436l159 -12c12,78 40,136 83,175 42,39 95,59 156,59 75,0 137,-28 187,-83 51,-55 76,-129 76,-220 0,-87 -24,-156 -72,-206 -49,-50 -113,-76 -192,-76 -50,0 -94,12 -133,34 -39,23 -70,52 -92,88l-144 -21 119 -638 616 0 0 145 -494 0 -66 336c74,-53 152,-79 234,-79 108,0 199,38 274,113 74,75 111,172 111,290 0,112 -33,209 -98,291 -79,101 -188,151 -326,151 -112,0 -204,-32 -276,-95 -71,-63 -112,-147 -122,-252z"/>
   <path id="15" class="fil1" d="M850 18941l160 -12c12,78 39,136 82,175 43,39 95,59 157,59 74,0 136,-28 187,-83 50,-55 75,-129 75,-220 0,-87 -24,-156 -72,-206 -48,-50 -112,-76 -192,-76 -49,0 -93,12 -133,34 -39,23 -69,52 -92,88l-144 -21 120 -638 615 0 0 145 -494 0 -66 336c74,-53 153,-79 234,-79 108,0 200,38 274,113 74,75 111,172 111,290 0,112 -32,209 -98,291 -79,101 -188,151 -325,151 -113,0 -205,-32 -276,-95 -72,-64 -113,-147 -123,-252z"/>
   <path id="16" class="fil1" d="M1897 19267l0 -173 173 0 0 173c0,64 -11,116 -34,155 -23,39 -59,70 -108,91l-42 -66c32,-14 56,-34 71,-62 16,-27 24,-66 26,-118l-86 0z"/>
   <path id="17" class="fil1" d="M2297 18654c0,-146 15,-265 45,-355 30,-89 75,-159 135,-207 59,-48 134,-72 224,-72 67,0 125,13 176,40 50,27 91,66 124,116 32,51 58,112 76,185 19,72 28,170 28,293 0,146 -15,264 -45,353 -29,90 -74,159 -134,208 -59,49 -134,73 -225,73 -119,0 -213,-43 -282,-128 -81,-104 -122,-272 -122,-506zm156 1c0,204 24,340 71,407 48,67 107,101 177,101 70,0 129,-34 177,-101 47,-68 71,-203 71,-407 0,-205 -24,-340 -71,-408 -48,-67 -107,-100 -179,-100 -70,0 -126,29 -168,89 -52,75 -78,215 -78,419z"/>
   <path id="18" class="fil1" d="M1650 23626l0 146 -822 0c-1,-37 5,-72 18,-106 21,-56 55,-111 101,-165 47,-54 113,-117 200,-187 134,-111 225,-199 273,-264 48,-64 72,-126 72,-183 0,-61 -22,-112 -65,-153 -43,-42 -100,-62 -170,-62 -73,0 -132,22 -177,65 -44,44 -66,105 -67,183l-156 -16c11,-117 51,-206 121,-267 71,-61 165,-92 283,-92 119,0 213,33 283,99 69,66 104,148 104,246 0,50 -10,99 -30,147 -21,48 -55,99 -102,152 -47,53 -125,126 -235,218 -91,77 -150,129 -176,157 -26,27 -48,55 -65,82l610 0z"/>
   <path id="19" class="fil1" d="M1897 23772l0 -173 173 0 0 173c0,64 -11,116 -34,155 -23,39 -59,70 -108,91l-42 -66c32,-14 56,-35 71,-62 16,-27 24,-66 26,-118l-86 0z"/>
   <path id="20" class="fil1" d="M2297 23446l159 -12c12,78 40,136 83,175 42,39 95,59 156,59 75,0 137,-28 187,-83 51,-55 76,-129 76,-220 0,-87 -24,-156 -72,-206 -49,-50 -113,-76 -192,-76 -50,0 -94,12 -133,34 -39,23 -70,52 -92,88l-144 -21 119 -638 616 0 0 145 -494 0 -66 335c74,-52 152,-78 234,-78 108,0 199,38 274,113 74,75 111,172 111,290 0,112 -33,209 -98,291 -79,101 -188,151 -326,151 -112,0 -204,-32 -276,-95 -71,-64 -112,-147 -122,-252z"/>
   <path id="21" class="fil1" d="M850 27664c0,-146 15,-265 45,-355 31,-89 76,-159 135,-207 59,-48 134,-72 224,-72 67,0 125,13 176,40 50,27 92,66 124,116 33,51 58,112 77,185 18,72 28,170 28,293 0,146 -15,264 -45,353 -30,90 -75,159 -134,208 -60,49 -135,73 -226,73 -119,0 -213,-43 -281,-128 -82,-104 -123,-273 -123,-506zm156 1c0,204 24,340 72,407 47,67 106,101 176,101 70,0 129,-34 177,-101 48,-68 71,-203 71,-407 0,-205 -23,-341 -71,-408 -47,-67 -107,-100 -178,-100 -70,0 -126,29 -168,89 -53,75 -79,215 -79,419z"/>
   <path id="22" class="fil1" d="M1897 28277l0 -173 173 0 0 173c0,64 -11,116 -34,155 -23,39 -59,70 -108,91l-42 -66c32,-14 56,-35 71,-62 16,-27 24,-66 26,-118l-86 0z"/>
   <path id="23" class="fil1" d="M2297 27664c0,-146 15,-265 45,-355 30,-89 75,-159 135,-207 59,-48 134,-72 224,-72 67,0 125,13 176,40 50,27 91,66 124,116 32,51 58,112 76,185 19,72 28,170 28,293 0,146 -15,264 -45,353 -29,90 -74,159 -134,208 -59,49 -134,73 -225,73 -119,0 -213,-43 -282,-128 -81,-104 -122,-273 -122,-506zm156 1c0,204 24,340 71,407 48,67 107,101 177,101 70,0 129,-34 177,-101 47,-68 71,-203 71,-407 0,-205 -24,-341 -71,-408 -48,-67 -107,-100 -179,-100 -70,0 -126,29 -168,89 -52,75 -78,215 -78,419z"/>
   <rect class="fil0 str0" x="4710" y="837" width="63818" height="4479"/>
   <rect class="fil0 str0" x="4710" y="5316" width="63818" height="4479"/>
  </g>
  <g id="_2637983815344">
   <rect class="fil2" x="58186" y="2388" width="7909" height="25324"/>
   <rect class="fil2" x="45410" y="16852" width="7909" height="10860"/>
   <rect class="fil2" x="32756" y="18647" width="7909" height="9065"/>
   <rect class="fil2" x="20041" y="25962" width="7909" height="1749"/>
   <path class="fil1" d="M11504 30376l-164 0 0 -1046c-40,38 -92,75 -156,113 -64,38 -122,66 -173,85l0 -159c92,-43 172,-95 241,-157 69,-61 118,-121 146,-179l106 0 0 1343z"/>
   <path id="1" class="fil1" d="M24441 30219l0 157 -886 0c-1,-39 6,-77 20,-114 22,-60 59,-120 109,-178 50,-58 122,-125 215,-201 144,-120 243,-214 294,-284 52,-69 78,-135 78,-198 0,-65 -24,-119 -70,-164 -47,-45 -108,-67 -183,-67 -80,0 -143,23 -191,71 -47,47 -71,112 -72,196l-168 -17c12,-126 55,-222 131,-288 75,-66 176,-99 304,-99 128,0 230,36 304,107 75,71 113,160 113,265 0,54 -11,106 -33,158 -22,52 -59,106 -109,164 -51,57 -136,135 -253,235 -99,83 -162,139 -190,168 -29,30 -52,59 -70,89l657 0z"/>
   <path id="2" class="fil1" d="M36271 30021l165 -22c19,93 50,161 95,202 46,41 101,61 167,61 77,0 143,-27 196,-80 53,-54 79,-120 79,-199 0,-75 -24,-138 -74,-187 -49,-49 -111,-73 -188,-73 -31,0 -69,6 -116,18l19 -144c10,2 19,2 26,2 70,0 133,-18 190,-54 56,-37 84,-93 84,-169 0,-60 -21,-109 -62,-149 -40,-39 -93,-59 -157,-59 -65,0 -118,20 -160,61 -43,40 -71,101 -83,182l-164 -30c20,-110 66,-196 137,-257 71,-60 160,-91 265,-91 73,0 141,16 202,47 61,32 108,74 141,128 33,54 49,111 49,172 0,58 -16,110 -47,157 -31,48 -77,85 -138,113 80,18 141,56 185,114 43,57 65,129 65,216 0,116 -43,216 -128,297 -85,81 -193,122 -323,122 -117,0 -214,-36 -292,-106 -78,-70 -122,-160 -133,-272z"/>
   <path id="3" class="fil1" d="M49488 30376l0 -319 -581 0 0 -151 610 -867 135 0 0 867 181 0 0 151 -181 0 0 319 -164 0zm0 -470l0 -602 -420 602 420 0z"/>
   <path id="4" class="fil1" d="M61654 30025l172 -13c13,84 43,147 89,189 46,42 102,63 168,63 80,0 147,-30 202,-89 54,-60 81,-139 81,-237 0,-94 -26,-168 -78,-222 -52,-54 -121,-81 -206,-81 -54,0 -101,12 -143,36 -42,24 -75,56 -100,95l-155 -23 129 -687 663 0 0 157 -532 0 -71 360c80,-56 164,-84 252,-84 116,0 214,41 294,121 80,81 121,185 121,312 0,121 -36,226 -106,314 -86,108 -203,163 -351,163 -121,0 -220,-35 -297,-103 -77,-68 -121,-158 -132,-271z"/>
   <path class="fil3" d="M60272 4361l0 -295 -537 0 0 -140 565 -801 124 0 0 801 167 0 0 140 -167 0 0 295 -152 0zm0 -435l0 -556 -387 556 387 0z"/>
   <path id="1" class="fil3" d="M60981 3691c-63,-23 -110,-56 -140,-98 -30,-43 -46,-95 -46,-154 0,-90 32,-165 97,-227 65,-61 150,-92 258,-92 107,0 194,32 260,94 65,63 98,139 98,229 0,57 -15,108 -45,150 -30,42 -75,75 -137,98 76,25 133,65 173,120 39,55 59,120 59,197 0,105 -37,194 -112,266 -75,72 -173,108 -294,108 -122,0 -220,-36 -295,-108 -74,-73 -112,-163 -112,-270 0,-81 21,-148 62,-202 40,-54 98,-91 174,-111zm-30 -258c0,59 18,107 55,144 38,37 87,56 147,56 59,0 107,-19 144,-55 37,-37 56,-82 56,-136 0,-56 -19,-103 -58,-141 -38,-38 -86,-57 -143,-57 -59,0 -107,19 -145,56 -37,37 -56,82 -56,133zm-50 572c0,43 10,85 30,125 20,41 50,72 91,94 41,22 84,33 131,33 73,0 133,-23 180,-69 46,-47 70,-106 70,-178 0,-73 -24,-134 -72,-181 -49,-48 -110,-72 -183,-72 -72,0 -131,24 -178,71 -46,47 -69,106 -69,177z"/>
   <path id="2" class="fil3" d="M61788 4361l0 -173 172 0 0 173c0,64 -11,115 -34,154 -22,39 -58,70 -107,91l-42 -66c33,-14 56,-34 71,-61 15,-28 24,-67 26,-118l-86 0z"/>
   <path id="3" class="fil3" d="M62186 4033l152 -21c18,87 47,149 89,187 41,38 92,57 153,57 72,0 133,-25 182,-74 49,-50 73,-111 73,-184 0,-70 -23,-127 -68,-173 -46,-45 -104,-68 -174,-68 -29,0 -65,6 -107,17l17 -133c10,2 18,2 24,2 65,0 123,-17 175,-50 52,-34 78,-86 78,-156 0,-55 -19,-101 -57,-138 -38,-36 -86,-55 -146,-55 -59,0 -108,19 -148,57 -39,37 -64,93 -75,168l-152 -28c18,-102 60,-181 126,-237 66,-56 148,-84 246,-84 67,0 129,15 186,44 57,28 100,68 130,118 30,50 45,103 45,159 0,53 -14,101 -43,145 -29,44 -71,78 -127,104 73,17 130,52 170,105 40,53 60,120 60,200 0,107 -39,199 -117,274 -79,75 -179,113 -299,113 -108,0 -198,-33 -270,-98 -72,-64 -113,-148 -123,-251z"/>
   <path id="4" class="fil3" d="M63174 3422c0,-88 22,-163 66,-225 45,-62 109,-92 194,-92 77,0 142,27 193,83 51,55 76,136 76,243 0,105 -26,185 -77,241 -52,57 -115,85 -190,85 -76,0 -138,-28 -188,-83 -49,-56 -74,-140 -74,-252zm264 -212c-38,0 -69,16 -94,49 -25,32 -38,92 -38,178 0,79 13,135 38,166 26,33 57,49 94,49 38,0 70,-16 95,-49 25,-32 37,-92 37,-178 0,-79 -12,-135 -38,-167 -25,-32 -56,-48 -94,-48zm1 1196l674 -1301 124 0 -673 1301 -125 0zm532 -335c0,-89 22,-164 66,-225 45,-62 109,-92 194,-92 78,0 142,27 193,82 51,56 77,137 77,244 0,104 -26,185 -78,241 -51,57 -115,85 -191,85 -75,0 -137,-28 -186,-84 -50,-56 -75,-140 -75,-251zm265 -212c-39,0 -70,16 -95,48 -25,33 -37,92 -37,179 0,78 12,133 38,166 25,32 56,49 93,49 39,0 70,-17 95,-49 25,-33 38,-92 38,-178 0,-79 -13,-135 -38,-167 -25,-32 -57,-48 -94,-48z"/>
   <path class="fil3" d="M47815 18654l0 145 -818 0c-1,-37 5,-72 18,-106 21,-55 55,-110 101,-164 46,-54 113,-116 199,-186 133,-110 224,-197 272,-262 47,-64 71,-125 71,-183 0,-60 -21,-111 -64,-152 -44,-41 -100,-62 -169,-62 -74,0 -132,22 -176,66 -44,43 -66,104 -67,181l-155 -16c10,-116 51,-204 120,-265 70,-61 164,-92 281,-92 119,0 213,33 282,99 69,66 104,147 104,245 0,49 -11,98 -31,145 -20,48 -54,99 -101,152 -47,52 -125,125 -233,217 -92,77 -150,128 -176,156 -26,27 -47,54 -64,82l606 0z"/>
   <path id="1" class="fil3" d="M47980 18189c0,-146 14,-264 44,-353 31,-89 75,-158 134,-206 59,-48 134,-72 224,-72 66,0 124,13 174,40 50,27 92,65 124,116 32,50 57,111 76,183 18,73 28,170 28,292 0,145 -15,263 -45,352 -30,89 -74,158 -133,206 -59,49 -134,73 -224,73 -119,0 -213,-43 -281,-127 -81,-104 -121,-272 -121,-504zm155 1c0,203 23,338 71,405 47,67 106,100 176,100 69,0 128,-33 175,-100 48,-68 71,-202 71,-405 0,-204 -23,-339 -71,-405 -47,-67 -106,-101 -177,-101 -70,0 -126,30 -167,89 -52,75 -78,214 -78,417z"/>
   <path id="2" class="fil3" d="M49020 18799l0 -173 173 0 0 173c0,64 -11,115 -34,154 -22,39 -58,70 -108,91l-41 -66c32,-14 56,-34 71,-61 15,-28 24,-67 25,-118l-86 0z"/>
   <path id="3" class="fil3" d="M49427 17724l0 -145 799 0 0 117c-78,84 -156,195 -234,334 -77,139 -136,282 -179,429 -30,103 -49,217 -58,340l-155 0c2,-97 21,-215 57,-353 37,-138 89,-271 157,-399 68,-128 141,-235 217,-323l-604 0z"/>
   <path id="4" class="fil3" d="M50406 17860c0,-88 22,-163 67,-225 44,-62 109,-92 193,-92 78,0 142,27 193,83 51,55 77,136 77,243 0,105 -26,185 -78,241 -51,57 -115,85 -190,85 -75,0 -137,-28 -187,-83 -50,-56 -75,-140 -75,-252zm265 -212c-38,0 -69,16 -94,49 -25,32 -38,92 -38,178 0,79 13,134 38,166 25,33 57,49 94,49 38,0 70,-16 95,-49 25,-32 37,-92 37,-178 0,-79 -13,-135 -38,-167 -25,-32 -57,-48 -94,-48zm1 1196l673 -1301 124 0 -672 1301 -125 0zm531 -335c0,-89 22,-164 67,-225 44,-62 109,-92 194,-92 78,0 142,27 193,82 51,56 76,137 76,244 0,104 -26,185 -77,241 -51,57 -115,85 -191,85 -75,0 -137,-28 -187,-84 -50,-56 -75,-140 -75,-251zm265 -212c-38,0 -69,16 -94,48 -25,33 -38,92 -38,179 0,78 13,133 38,166 25,32 56,49 93,49 39,0 71,-17 96,-49 25,-33 37,-92 37,-178 0,-79 -12,-135 -38,-167 -25,-32 -56,-48 -94,-48z"/>
   <path class="fil3" d="M34866 20586l-151 0 0 -967c-37,35 -85,70 -144,105 -60,35 -113,61 -160,78l0 -147c85,-39 159,-88 222,-145 64,-56 109,-111 136,-165l97 0 0 1241z"/>
   <path id="1" class="fil3" d="M35265 19511l0 -145 799 0 0 117c-78,84 -156,195 -234,334 -77,139 -136,282 -179,429 -30,103 -50,217 -58,340l-155 0c2,-97 21,-215 57,-353 37,-138 89,-271 157,-398 68,-128 140,-236 217,-324l-604 0z"/>
   <path id="2" class="fil3" d="M36297 20586l0 -173 173 0 0 173c0,64 -11,115 -34,154 -22,39 -58,70 -107,91l-42 -65c32,-15 56,-35 71,-62 15,-28 24,-67 26,-118l-87 0z"/>
   <path id="3" class="fil3" d="M37491 20441l0 145 -818 0c-1,-36 5,-72 18,-106 21,-55 55,-110 101,-164 46,-54 113,-116 199,-186 133,-110 224,-197 272,-262 47,-64 71,-125 71,-183 0,-60 -21,-110 -64,-152 -44,-41 -100,-62 -169,-62 -74,0 -132,22 -176,66 -44,43 -66,104 -67,181l-155 -15c10,-117 51,-205 120,-266 70,-61 164,-92 281,-92 119,0 213,33 282,99 69,66 104,148 104,245 0,49 -10,98 -31,146 -20,48 -54,98 -101,151 -47,52 -125,125 -233,217 -92,77 -150,129 -176,156 -26,27 -47,54 -64,82l606 0z"/>
   <path id="4" class="fil3" d="M37683 19647c0,-88 22,-163 67,-225 44,-61 109,-92 193,-92 78,0 143,27 193,83 51,55 77,136 77,243 0,105 -26,185 -77,241 -52,57 -115,85 -191,85 -75,0 -137,-28 -187,-83 -50,-56 -75,-140 -75,-252zm265 -212c-38,0 -69,16 -94,49 -25,32 -38,92 -38,178 0,79 13,135 38,166 25,33 57,49 94,49 38,0 70,-16 95,-49 25,-32 37,-92 37,-178 0,-79 -13,-135 -38,-167 -25,-32 -57,-48 -94,-48zm1 1196l674 -1301 123 0 -672 1301 -125 0zm531 -335c0,-89 23,-164 67,-225 44,-62 109,-92 194,-92 78,0 142,27 193,82 51,56 76,137 76,244 0,104 -25,185 -77,241 -51,57 -115,85 -191,85 -75,0 -137,-28 -187,-84 -50,-56 -75,-140 -75,-251zm265 -212c-38,0 -69,16 -94,48 -25,33 -38,93 -38,179 0,78 13,134 38,166 25,33 56,49 93,49 39,0 71,-16 96,-49 25,-32 37,-92 37,-178 0,-79 -12,-135 -38,-167 -25,-32 -56,-48 -94,-48z"/>
   <path class="fil4" d="M22119 25216l152 -20c17,86 47,148 88,186 42,38 93,57 154,57 72,0 132,-25 181,-74 49,-50 74,-111 74,-184 0,-70 -23,-127 -69,-173 -45,-45 -103,-67 -174,-67 -28,0 -64,5 -107,17l17 -133c10,1 19,1 25,1 65,0 123,-17 175,-50 52,-34 77,-86 77,-156 0,-55 -19,-101 -56,-138 -38,-36 -87,-54 -146,-54 -59,0 -108,18 -148,56 -39,37 -65,93 -76,168l-152 -28c19,-101 61,-180 127,-237 65,-56 147,-84 245,-84 68,0 130,15 186,44 57,29 101,68 131,118 30,50 45,103 45,159 0,53 -15,101 -43,145 -29,44 -71,79 -128,105 74,16 130,51 171,105 40,52 60,119 60,199 0,108 -39,199 -118,274 -79,76 -178,113 -298,113 -109,0 -199,-33 -270,-97 -72,-65 -113,-149 -123,-252z"/>
   <path id="1" class="fil4" d="M23160 25544l0 -172 172 0 0 172c0,64 -11,115 -34,154 -22,40 -58,70 -107,91l-42 -65c33,-14 56,-35 71,-62 15,-27 24,-67 26,-118l-86 0z"/>
   <path id="2" class="fil4" d="M24043 25544l0 -295 -537 0 0 -140 564 -800 125 0 0 800 167 0 0 140 -167 0 0 295 -152 0zm0 -435l0 -556 -388 556 388 0z"/>
   <path id="3" class="fil4" d="M24545 24605c0,-88 22,-163 67,-224 45,-62 109,-93 194,-93 77,0 142,28 193,83 51,55 76,136 76,243 0,105 -26,185 -77,242 -52,56 -115,84 -191,84 -75,0 -137,-28 -187,-83 -50,-56 -75,-140 -75,-252zm265 -212c-38,0 -69,16 -94,49 -25,32 -38,92 -38,178 0,79 13,135 38,167 25,32 57,48 94,48 38,0 70,-16 95,-49 25,-32 37,-91 37,-177 0,-80 -12,-136 -38,-167 -25,-33 -56,-49 -94,-49zm1 1196l674 -1301 123 0 -672 1301 -125 0zm532 -335c0,-89 22,-164 66,-225 45,-61 109,-92 194,-92 78,0 142,27 193,83 51,55 76,136 76,243 0,105 -25,185 -77,242 -51,56 -115,84 -191,84 -75,0 -137,-28 -187,-84 -49,-55 -74,-139 -74,-251zm264 -212c-38,0 -69,16 -94,49 -25,32 -38,92 -38,178 0,79 13,134 38,166 25,33 57,49 94,49 38,0 70,-16 95,-49 25,-32 38,-92 38,-178 0,-79 -13,-135 -38,-167 -25,-32 -57,-48 -95,-48z"/>
   <rect class="fil2" x="7265" y="22304" width="7909" height="5407"/>
   <path class="fil3" d="M9376 24378l-152 0 0 -967c-37,35 -85,70 -144,105 -59,35 -113,61 -160,78l0 -147c85,-39 159,-88 223,-145 63,-56 108,-111 135,-165l98 0 0 1241z"/>
   <path id="1" class="fil3" d="M9766 23768c0,-145 15,-263 45,-353 30,-89 75,-158 134,-206 59,-48 133,-72 223,-72 66,0 124,14 175,40 50,27 91,66 123,116 32,50 58,111 76,183 19,73 28,170 28,292 0,145 -15,263 -45,352 -29,89 -74,158 -133,206 -59,49 -134,73 -224,73 -119,0 -212,-42 -280,-127 -82,-104 -122,-272 -122,-504zm155 1c0,203 24,338 71,405 48,67 106,101 176,101 70,0 128,-34 176,-101 47,-67 71,-202 71,-405 0,-203 -24,-339 -71,-405 -47,-67 -107,-101 -178,-101 -69,0 -125,30 -167,89 -52,75 -78,214 -78,417z"/>
   <path id="2" class="fil3" d="M10807 24378l0 -172 172 0 0 172c0,64 -11,115 -34,154 -22,39 -58,70 -107,91l-42 -65c33,-15 56,-35 71,-62 15,-28 24,-67 26,-118l-86 0z"/>
   <path id="3" class="fil3" d="M11205 24050l152 -20c18,86 47,148 89,186 41,38 92,57 153,57 72,0 133,-25 182,-74 48,-50 73,-111 73,-184 0,-70 -23,-127 -69,-173 -45,-45 -103,-68 -173,-68 -29,0 -65,6 -108,17l17 -133c11,2 19,2 25,2 65,0 123,-17 175,-50 52,-34 78,-86 78,-156 0,-55 -19,-101 -57,-138 -38,-36 -86,-54 -146,-54 -59,0 -108,18 -148,56 -39,37 -64,93 -76,168l-151 -28c18,-101 60,-181 126,-237 66,-56 148,-84 246,-84 67,0 129,15 186,44 57,29 100,68 130,118 30,50 45,103 45,159 0,53 -14,101 -43,145 -29,44 -71,79 -127,104 73,17 129,52 170,105 40,53 60,120 60,200 0,108 -39,199 -117,274 -79,75 -179,113 -299,113 -108,0 -198,-33 -270,-97 -72,-65 -113,-149 -123,-252z"/>
   <path id="4" class="fil3" d="M12192 23439c0,-88 23,-163 67,-225 45,-61 109,-92 194,-92 77,0 142,27 193,83 51,55 76,136 76,243 0,105 -26,185 -77,242 -52,56 -115,84 -191,84 -75,0 -137,-28 -187,-83 -50,-56 -75,-140 -75,-252zm265 -212c-38,0 -69,16 -94,49 -25,32 -38,92 -38,178 0,79 13,135 38,167 26,32 57,48 94,48 38,0 70,-16 95,-49 25,-32 37,-92 37,-177 0,-80 -12,-136 -38,-168 -25,-32 -56,-48 -94,-48zm1 1196l674 -1301 123 0 -672 1301 -125 0zm532 -335c0,-89 22,-164 66,-225 45,-62 109,-92 194,-92 78,0 142,27 193,83 51,55 76,136 76,243 0,105 -25,185 -77,241 -51,57 -115,85 -191,85 -75,0 -137,-28 -187,-84 -49,-56 -74,-140 -74,-251zm265 -212c-39,0 -70,16 -95,49 -25,32 -37,92 -37,178 0,78 12,134 38,166 25,33 56,49 93,49 39,0 70,-16 95,-49 25,-32 38,-92 38,-178 0,-79 -13,-135 -38,-167 -25,-32 -57,-48 -94,-48z"/>
  </g>
 </g>
</svg>
