<?xml version="1.0" encoding="UTF-8"?>
<!DOCTYPE svg PUBLIC "-//W3C//DTD SVG 1.1//EN" "http://www.w3.org/Graphics/SVG/1.1/DTD/svg11.dtd">
<!-- Creator: CorelDRAW X8 -->
<svg xmlns="http://www.w3.org/2000/svg" xml:space="preserve" width="270.055mm" height="137.886mm" version="1.1" style="shape-rendering:geometricPrecision; text-rendering:geometricPrecision; image-rendering:optimizeQuality; fill-rule:evenodd; clip-rule:evenodd"
viewBox="0 0 18523 9457"
 xmlns:xlink="http://www.w3.org/1999/xlink">
 <defs>
  <style type="text/css">
   <![CDATA[
    .str0 {stroke:#A9ABAE;stroke-width:13.7178}
    .fil0 {fill:#FEFEFE}
    .fil2 {fill:#009688}
    .fil3 {fill:#FEFEFE;fill-rule:nonzero}
    .fil4 {fill:#201E1E;fill-rule:nonzero}
    .fil1 {fill:#201E1E;fill-rule:nonzero}
   ]]>
  </style>
 </defs>
 <g id="Camada_x0020_1">
  <metadata id="CorelCorpID_0Corel-Layer"/>
  <g id="_2637983381616">
   <rect class="fil0 str0" x="942" y="1195" width="17574" height="1881"/>
   <rect class="fil0 str0" x="942" y="3076" width="17574" height="1881"/>
   <rect class="fil0 str0" x="942" y="4956" width="17574" height="1881"/>
   <rect class="fil0 str0" x="942" y="6837" width="17574" height="1881"/>
   <path class="fil1" d="M227 1369l0 40 -227 0c0,-10 2,-20 5,-29 6,-16 15,-31 28,-46 13,-15 31,-32 55,-51 37,-31 62,-55 75,-73 14,-18 20,-35 20,-50 0,-17 -6,-31 -18,-43 -12,-11 -27,-17 -46,-17 -21,0 -37,6 -49,18 -12,13 -18,29 -19,51l-43 -5c3,-32 15,-56 34,-73 19,-17 45,-26 78,-26 32,0 58,10 78,28 19,18 28,41 28,68 0,13 -3,27 -8,40 -6,13 -15,27 -28,42 -13,14 -35,34 -65,60 -25,21 -41,35 -48,43 -8,8 -13,15 -18,23l168 0z"/>
   <path id="1" class="fil1" d="M272 1240c0,-40 4,-73 13,-98 8,-24 20,-43 37,-57 16,-13 37,-20 61,-20 19,0 35,4 49,12 14,7 25,18 34,32 9,13 16,30 21,50 5,20 8,47 8,81 0,40 -4,73 -13,97 -8,25 -20,44 -36,58 -17,13 -38,20 -63,20 -32,0 -58,-12 -77,-36 -23,-28 -34,-75 -34,-139zm43 0c0,57 7,94 20,112 13,19 29,28 48,28 20,0 36,-9 49,-28 13,-18 20,-56 20,-112 0,-56 -7,-93 -20,-112 -13,-18 -29,-28 -49,-28 -19,0 -35,9 -46,25 -15,21 -22,59 -22,115z"/>
   <path id="2" class="fil1" d="M164 3289l-42 0 0 -268c-10,10 -23,20 -40,29 -16,10 -31,17 -44,22l0 -41c24,-11 44,-24 62,-40 17,-16 30,-31 37,-46l27 0 0 344z"/>
   <path id="3" class="fil1" d="M272 3199l44 -3c3,21 11,37 23,48 12,11 26,16 43,16 20,0 37,-7 51,-23 14,-15 21,-35 21,-60 0,-24 -6,-43 -20,-57 -13,-14 -31,-21 -53,-21 -13,0 -25,3 -36,10 -11,6 -19,14 -26,24l-39 -6 33 -176 169 0 0 40 -136 0 -18 93c21,-15 42,-22 64,-22 30,0 55,10 76,31 20,21 31,47 31,80 0,31 -9,58 -27,80 -22,28 -52,42 -90,42 -31,0 -56,-9 -76,-27 -20,-17 -31,-40 -34,-69z"/>
   <path id="4" class="fil1" d="M164 5169l-42 0 0 -268c-10,10 -23,20 -40,29 -16,10 -31,17 -44,22l0 -41c24,-11 44,-24 62,-40 17,-16 30,-31 37,-46l27 0 0 344z"/>
   <path id="5" class="fil1" d="M272 5000c0,-40 4,-73 13,-98 8,-24 20,-43 37,-57 16,-13 37,-20 61,-20 19,0 35,4 49,11 14,8 25,19 34,32 9,14 16,31 21,51 5,20 8,47 8,81 0,40 -4,73 -13,97 -8,25 -20,44 -36,58 -17,13 -38,20 -63,20 -32,0 -58,-12 -77,-36 -23,-28 -34,-75 -34,-139zm43 0c0,57 7,94 20,112 13,19 29,28 48,28 20,0 36,-9 49,-28 13,-18 20,-56 20,-112 0,-56 -7,-93 -20,-112 -13,-19 -29,-28 -49,-28 -19,0 -35,8 -46,25 -15,21 -22,59 -22,115z"/>
   <path id="6" class="fil1" d="M272 6959l44 -3c3,21 11,37 23,48 12,11 26,16 43,16 20,0 37,-8 51,-23 14,-15 21,-35 21,-60 0,-24 -6,-43 -20,-57 -13,-14 -31,-21 -53,-21 -13,0 -25,3 -36,9 -11,7 -19,15 -26,25l-39 -6 33 -176 169 0 0 40 -136 0 -18 92c21,-14 42,-21 64,-21 30,0 55,10 76,31 20,21 31,47 31,80 0,31 -9,57 -27,80 -22,28 -52,42 -90,42 -31,0 -56,-9 -76,-27 -20,-17 -31,-40 -34,-69z"/>
   <path id="7" class="fil1" d="M272 8760c0,-40 4,-73 13,-98 8,-24 20,-43 37,-57 16,-13 37,-20 61,-20 19,0 35,4 49,11 14,8 25,18 34,32 9,14 16,31 21,51 5,20 8,47 8,81 0,40 -4,73 -13,97 -8,25 -20,44 -36,57 -17,14 -38,20 -63,20 -32,0 -58,-11 -77,-35 -23,-28 -34,-75 -34,-139zm43 0c0,56 7,94 20,112 13,19 29,28 48,28 20,0 36,-9 49,-28 13,-18 20,-56 20,-112 0,-56 -7,-94 -20,-112 -13,-19 -29,-28 -49,-28 -19,0 -35,8 -46,25 -15,20 -22,59 -22,115z"/>
   <rect class="fil2" x="15668" y="1614" width="2178" height="7103"/>
   <rect class="fil2" x="12150" y="6837" width="2178" height="1881"/>
   <rect class="fil2" x="8665" y="7210" width="2178" height="1508"/>
   <rect class="fil2" x="5164" y="8349" width="2178" height="369"/>
   <path class="fil1" d="M2813 9451l-45 0 0 -288c-11,11 -26,21 -43,31 -18,11 -34,19 -48,24l0 -44c25,-12 48,-26 66,-43 19,-17 33,-33 41,-49l29 0 0 369z"/>
   <path id="1" class="fil1" d="M6375 9408l0 43 -244 0c0,-11 2,-21 6,-31 6,-17 16,-33 30,-49 14,-16 33,-35 59,-56 40,-32 67,-58 81,-78 14,-19 21,-37 21,-54 0,-18 -6,-33 -19,-45 -13,-13 -30,-19 -50,-19 -22,0 -40,7 -53,20 -13,13 -19,31 -20,54l-46 -5c3,-35 15,-61 36,-79 21,-18 49,-27 84,-27 35,0 63,9 84,29 20,20 31,44 31,73 0,15 -3,29 -9,43 -6,15 -16,30 -30,45 -14,16 -38,38 -70,65 -27,23 -45,38 -52,47 -8,8 -15,16 -20,24l181 0z"/>
   <path id="2" class="fil1" d="M9633 9354l45 -7c6,26 14,45 27,56 12,11 27,17 46,17 21,0 39,-7 54,-22 14,-15 21,-33 21,-55 0,-21 -6,-38 -20,-51 -13,-14 -31,-21 -52,-21 -8,0 -19,2 -32,5l5 -39c3,0 6,0 8,0 19,0 36,-5 52,-15 15,-10 23,-25 23,-46 0,-17 -6,-30 -17,-41 -11,-11 -26,-16 -43,-16 -18,0 -33,5 -44,16 -12,11 -20,28 -23,50l-45 -8c5,-30 18,-54 37,-70 20,-17 44,-25 74,-25 20,0 38,4 55,13 17,8 30,20 39,35 9,15 13,30 13,47 0,16 -4,30 -12,43 -9,13 -22,24 -38,31 21,5 38,16 50,32 12,15 18,35 18,59 0,32 -11,60 -35,82 -23,22 -53,33 -89,33 -32,0 -59,-9 -80,-28 -22,-20 -34,-45 -37,-75z"/>
   <path id="3" class="fil1" d="M13273 9451l0 -88 -160 0 0 -41 168 -239 37 0 0 239 50 0 0 41 -50 0 0 88 -45 0zm0 -129l0 -166 -116 166 116 0z"/>
   <path id="4" class="fil1" d="M16623 9355l47 -4c4,23 12,40 25,52 12,12 28,17 46,17 22,0 41,-8 56,-24 14,-17 22,-38 22,-65 0,-26 -7,-47 -21,-61 -15,-15 -34,-23 -57,-23 -15,0 -28,3 -40,10 -11,7 -20,16 -27,26l-43 -6 36 -189 182 0 0 43 -146 0 -20 99c22,-15 45,-23 70,-23 32,0 59,11 81,33 22,23 33,51 33,86 0,34 -10,62 -29,87 -24,30 -56,44 -97,44 -33,0 -61,-9 -82,-28 -21,-18 -33,-43 -36,-74z"/>
   <path class="fil3" d="M16326 2030l-41 4c-4,-17 -9,-29 -16,-36 -12,-12 -26,-18 -42,-18 -14,0 -25,4 -36,11 -13,10 -23,24 -31,42 -7,18 -11,45 -12,79 10,-16 23,-27 37,-34 15,-8 30,-12 46,-12 28,0 52,11 71,31 20,21 30,47 30,80 0,21 -5,41 -14,59 -9,19 -22,33 -38,42 -16,10 -34,15 -55,15 -35,0 -63,-13 -85,-38 -22,-26 -33,-68 -33,-127 0,-66 12,-113 36,-143 22,-26 50,-39 86,-39 27,0 49,7 66,22 17,15 28,36 31,62zm-171 147c0,15 3,28 9,41 6,14 15,24 26,30 11,7 22,11 34,11 18,0 33,-7 46,-22 13,-14 19,-33 19,-58 0,-23 -6,-42 -19,-55 -12,-14 -28,-21 -47,-21 -19,0 -35,7 -48,21 -13,13 -20,31 -20,53z"/>
   <path id="1" class="fil3" d="M16373 2198l44 -3c3,21 11,37 22,48 12,10 26,16 43,16 21,0 38,-8 52,-23 13,-15 20,-35 20,-60 0,-24 -6,-43 -20,-57 -13,-13 -30,-20 -52,-20 -14,0 -26,3 -37,9 -10,6 -19,14 -25,24l-39 -6 33 -175 168 0 0 40 -135 0 -18 92c20,-14 41,-21 64,-21 29,0 54,10 75,31 20,20 30,47 30,79 0,31 -9,57 -26,80 -22,27 -52,41 -90,41 -31,0 -56,-9 -75,-26 -20,-17 -31,-40 -34,-69z"/>
   <path id="2" class="fil3" d="M16660 2287l0 -47 47 0 0 47c0,18 -3,32 -9,43 -6,11 -16,19 -30,25l-11 -18c9,-4 15,-10 19,-17 5,-8 7,-19 7,-33l-23 0z"/>
   <path id="3" class="fil3" d="M16769 2198l44 -3c3,21 11,37 23,48 11,10 26,16 43,16 20,0 37,-8 51,-23 14,-15 21,-35 21,-60 0,-24 -7,-43 -20,-57 -14,-13 -31,-20 -53,-20 -13,0 -25,3 -36,9 -11,6 -19,14 -25,24l-40 -6 33 -175 169 0 0 40 -136 0 -18 92c20,-14 42,-21 64,-21 30,0 55,10 75,31 20,20 31,47 31,79 0,31 -9,57 -27,80 -22,27 -52,41 -89,41 -31,0 -56,-9 -76,-26 -20,-17 -31,-40 -34,-69z"/>
   <path id="4" class="fil3" d="M17041 2029c0,-24 6,-45 19,-62 12,-17 30,-26 53,-26 21,0 39,8 53,23 14,15 21,38 21,67 0,29 -7,51 -21,67 -14,15 -32,23 -52,23 -21,0 -38,-8 -52,-23 -14,-15 -21,-38 -21,-69zm73 -59c-10,0 -19,5 -26,14 -7,9 -10,25 -10,49 0,22 3,37 10,46 7,9 16,13 26,13 11,0 19,-4 26,-13 7,-9 11,-26 11,-49 0,-22 -4,-38 -11,-46 -7,-9 -15,-14 -26,-14zm0 330l186 -359 34 0 -185 359 -35 0zm147 -93c0,-24 6,-45 18,-62 12,-16 30,-25 54,-25 21,0 39,8 53,23 14,15 21,38 21,67 0,29 -7,51 -21,66 -15,16 -32,24 -53,24 -21,0 -38,-8 -52,-23 -13,-16 -20,-39 -20,-70zm73 -58c-11,0 -19,5 -26,13 -7,9 -11,26 -11,50 0,21 4,36 11,45 7,9 15,14 26,14 10,0 19,-5 26,-14 7,-9 10,-25 10,-49 0,-21 -3,-37 -10,-46 -7,-8 -16,-13 -26,-13z"/>
   <path id="5" class="fil3" d="M16675 2818l-42 0 0 -266c-10,10 -23,19 -39,29 -17,9 -31,17 -44,21l0 -40c23,-11 43,-24 61,-40 17,-16 30,-31 37,-45l27 0 0 341z"/>
   <path id="6" class="fil3" d="M16789 2739l40 -3c3,19 10,32 19,41 10,8 22,13 37,13 13,0 24,-3 34,-9 10,-6 18,-14 24,-24 6,-10 11,-23 15,-40 4,-16 6,-33 6,-51 0,-2 0,-4 0,-8 -8,13 -20,24 -34,32 -14,9 -30,13 -47,13 -28,0 -52,-10 -71,-31 -20,-20 -29,-47 -29,-81 0,-34 10,-62 30,-83 20,-21 46,-31 76,-31 22,0 43,5 61,17 18,12 32,29 42,51 9,22 14,54 14,96 0,44 -5,78 -14,104 -10,26 -24,45 -42,59 -19,13 -41,20 -66,20 -26,0 -48,-7 -65,-22 -17,-15 -27,-36 -30,-63zm170 -150c0,-24 -6,-43 -19,-57 -12,-14 -28,-21 -46,-21 -18,0 -35,8 -48,23 -14,15 -21,35 -21,59 0,21 7,39 20,52 13,14 29,21 48,21 19,0 35,-7 48,-21 12,-13 18,-32 18,-56z"/>
   <path class="fil3" d="M12731 7394l-42 0 0 -266c-10,9 -23,19 -40,29 -16,9 -31,16 -44,21l0 -40c24,-11 44,-24 62,-40 17,-16 30,-31 37,-46l27 0 0 342z"/>
   <path id="1" class="fil3" d="M12841 7098l0 -40 220 0 0 32c-22,23 -43,54 -65,92 -21,39 -37,78 -49,118 -8,29 -14,60 -16,94l-43 0c1,-27 6,-59 16,-97 10,-38 24,-75 43,-110 19,-35 39,-65 60,-89l-166 0z"/>
   <path id="2" class="fil3" d="M13125 7394l0 -47 48 0 0 47c0,18 -4,32 -10,43 -6,10 -16,19 -29,25l-12 -19c9,-3 16,-9 20,-17 4,-7 6,-18 7,-32l-24 0z"/>
   <path id="3" class="fil3" d="M13454 7354l0 40 -225 0c-1,-10 1,-20 4,-29 6,-15 15,-30 28,-45 13,-15 31,-32 55,-52 37,-30 62,-54 75,-72 13,-17 20,-34 20,-50 0,-17 -6,-30 -18,-42 -12,-11 -28,-17 -47,-17 -20,0 -36,6 -48,18 -12,12 -18,29 -19,50l-42 -4c3,-32 14,-57 33,-73 19,-17 45,-26 77,-26 33,0 59,9 78,28 19,18 28,40 28,67 0,14 -2,27 -8,40 -6,13 -15,27 -28,42 -13,14 -34,34 -64,60 -25,21 -41,35 -49,42 -7,8 -13,16 -17,23l167 0z"/>
   <path id="4" class="fil3" d="M13507 7135c0,-24 6,-44 18,-61 12,-17 30,-26 53,-26 22,0 39,8 53,23 14,15 21,38 21,67 0,29 -7,51 -21,66 -14,16 -32,24 -52,24 -21,0 -38,-8 -52,-23 -14,-16 -20,-39 -20,-70zm72 -58c-10,0 -19,5 -25,13 -7,9 -11,26 -11,50 0,21 4,37 11,45 7,9 15,14 25,14 11,0 20,-5 27,-14 6,-9 10,-25 10,-49 0,-21 -4,-37 -11,-46 -7,-8 -15,-13 -26,-13zm1 329l185 -358 34 0 -185 358 -34 0zm146 -92c0,-24 6,-45 19,-62 12,-17 30,-25 53,-25 21,0 39,7 53,23 14,15 21,37 21,67 0,28 -7,51 -21,66 -14,16 -32,23 -53,23 -20,0 -38,-7 -51,-23 -14,-15 -21,-38 -21,-69zm73 -58c-10,0 -19,4 -26,13 -7,9 -10,26 -10,49 0,22 3,37 10,46 7,9 16,13 26,13 11,0 19,-4 26,-13 7,-9 10,-25 10,-49 0,-22 -3,-37 -10,-46 -7,-9 -16,-13 -26,-13z"/>
   <path id="5" class="fil3" d="M13116 7836l43 -4c4,22 11,38 23,48 12,11 26,16 43,16 20,0 37,-7 51,-22 14,-16 21,-36 21,-61 0,-23 -7,-42 -20,-56 -13,-14 -31,-21 -53,-21 -13,0 -25,3 -36,10 -11,6 -19,14 -25,24l-40 -6 33 -175 169 0 0 40 -136 0 -18 92c21,-15 42,-22 64,-22 30,0 55,11 75,31 21,21 31,47 31,79 0,31 -9,58 -27,80 -22,28 -52,42 -89,42 -31,0 -56,-9 -76,-26 -19,-18 -31,-41 -33,-69z"/>
   <path class="fil3" d="M9246 7777l-42 0 0 -266c-10,10 -23,19 -39,29 -16,9 -31,17 -44,21l0 -40c23,-11 44,-24 61,-40 18,-16 30,-31 37,-45l27 0 0 341z"/>
   <path id="1" class="fil3" d="M9354 7687l42 -6c4,24 12,41 24,52 11,10 26,15 42,15 20,0 37,-7 50,-20 14,-14 20,-31 20,-51 0,-19 -6,-35 -18,-47 -13,-13 -29,-19 -48,-19 -8,0 -18,2 -30,5l5 -37c3,0 5,1 7,1 17,0 33,-5 48,-14 14,-10 21,-24 21,-43 0,-15 -5,-28 -15,-38 -11,-10 -24,-15 -41,-15 -16,0 -29,5 -40,15 -11,11 -18,26 -21,47l-42 -8c5,-28 17,-50 35,-65 18,-16 40,-23 67,-23 19,0 36,4 52,12 15,7 27,18 36,32 8,14 12,28 12,44 0,14 -4,28 -12,40 -8,12 -19,21 -35,29 20,4 36,14 47,28 11,15 17,33 17,55 0,30 -11,55 -33,76 -22,21 -49,31 -82,31 -30,0 -55,-9 -74,-27 -20,-18 -31,-41 -34,-69z"/>
   <path id="2" class="fil3" d="M9640 7777l0 -47 48 0 0 47c0,18 -3,32 -9,43 -7,11 -17,19 -30,25l-11 -18c8,-4 15,-10 19,-17 4,-8 7,-19 7,-33l-24 0z"/>
   <path id="3" class="fil3" d="M9814 7593c-17,-7 -30,-16 -38,-27 -8,-12 -13,-26 -13,-43 0,-24 9,-45 27,-62 18,-17 41,-25 71,-25 30,0 53,8 72,26 18,17 27,38 27,63 0,15 -5,29 -13,41 -8,11 -20,20 -37,27 20,7 36,18 47,33 11,15 16,33 16,54 0,29 -10,53 -30,73 -21,20 -48,30 -82,30 -33,0 -60,-10 -81,-30 -20,-20 -30,-44 -30,-74 0,-22 5,-41 16,-56 12,-15 28,-25 48,-30zm-8 -71c0,16 5,29 15,39 11,11 24,16 41,16 16,0 29,-5 40,-15 10,-11 15,-23 15,-38 0,-15 -5,-28 -16,-38 -10,-11 -24,-16 -40,-16 -16,0 -29,5 -39,15 -11,10 -16,23 -16,37zm-14 157c0,12 3,24 9,35 5,11 14,19 25,26 11,6 23,9 36,9 20,0 36,-7 49,-19 13,-13 20,-30 20,-49 0,-21 -7,-37 -20,-50 -14,-13 -30,-20 -51,-20 -19,0 -36,6 -48,19 -13,13 -20,30 -20,49z"/>
   <path id="4" class="fil3" d="M10022 7519c0,-25 6,-45 18,-62 13,-17 30,-26 54,-26 21,0 39,8 53,23 14,15 21,38 21,67 0,29 -7,51 -21,67 -15,15 -32,23 -53,23 -21,0 -38,-8 -51,-23 -14,-15 -21,-38 -21,-69zm73 -59c-11,0 -19,5 -26,14 -7,9 -10,25 -10,49 0,22 3,37 10,46 7,9 16,13 26,13 10,0 19,-4 26,-13 7,-9 10,-26 10,-49 0,-22 -3,-38 -10,-46 -7,-9 -16,-14 -26,-14zm0 330l186 -359 34 0 -185 359 -35 0zm146 -93c0,-24 7,-45 19,-62 12,-17 30,-25 53,-25 22,0 39,8 53,23 14,15 21,37 21,67 0,29 -7,51 -21,66 -14,16 -32,24 -53,24 -20,0 -37,-8 -51,-23 -14,-16 -21,-39 -21,-70zm73 -58c-10,0 -19,4 -26,13 -7,9 -10,26 -10,50 0,21 4,36 11,45 6,9 15,14 25,14 11,0 20,-5 26,-14 7,-9 11,-25 11,-49 0,-22 -4,-37 -11,-46 -7,-9 -15,-13 -26,-13z"/>
   <path id="5" class="fil3" d="M9765 8308l0 -81 -148 0 0 -39 155 -220 34 0 0 220 46 0 0 39 -46 0 0 81 -41 0zm0 -120l0 -153 -107 153 107 0z"/>
   <path class="fil4" d="M5736 7605l42 -6c5,24 13,41 24,52 12,10 26,15 42,15 20,0 37,-6 50,-20 14,-14 21,-30 21,-51 0,-19 -7,-35 -19,-47 -13,-13 -29,-19 -48,-19 -8,0 -18,2 -30,5l5 -37c3,1 5,1 7,1 18,0 34,-5 48,-14 14,-9 21,-24 21,-43 0,-15 -5,-28 -15,-38 -11,-10 -24,-15 -40,-15 -17,0 -30,5 -41,15 -11,11 -18,26 -21,47l-42 -8c5,-28 17,-50 35,-65 18,-16 41,-23 68,-23 18,0 35,4 51,12 15,8 27,19 36,32 8,14 12,29 12,44 0,15 -4,28 -12,40 -8,12 -19,22 -35,29 20,4 36,14 47,29 11,14 17,33 17,55 0,29 -11,55 -33,75 -21,21 -49,31 -82,31 -30,0 -55,-9 -74,-27 -20,-17 -31,-40 -34,-69z"/>
   <path id="1" class="fil4" d="M6022 7695l0 -47 48 0 0 47c0,18 -3,32 -9,43 -7,11 -16,19 -30,25l-11 -18c9,-4 15,-10 19,-17 4,-8 7,-18 7,-33l-24 0z"/>
   <path id="2" class="fil4" d="M6266 7695l0 -81 -148 0 0 -38 155 -221 35 0 0 221 46 0 0 38 -46 0 0 81 -42 0zm0 -119l0 -153 -107 153 107 0z"/>
   <path id="3" class="fil4" d="M6404 7437c0,-24 6,-45 18,-62 13,-17 30,-25 54,-25 21,0 39,7 53,22 14,16 21,38 21,67 0,29 -7,51 -21,67 -15,15 -32,23 -53,23 -20,0 -38,-8 -51,-23 -14,-15 -21,-38 -21,-69zm73 -58c-10,0 -19,4 -26,13 -7,9 -10,25 -10,49 0,22 3,37 10,46 7,9 16,13 26,13 10,0 19,-4 26,-13 7,-9 10,-25 10,-49 0,-22 -3,-37 -10,-46 -7,-9 -16,-13 -26,-13zm0 329l186 -358 34 0 -185 358 -35 0zm147 -92c0,-25 6,-46 18,-62 12,-17 30,-26 53,-26 22,0 39,8 54,23 14,15 20,38 20,67 0,29 -7,51 -21,67 -14,15 -31,23 -52,23 -21,0 -38,-8 -52,-23 -14,-16 -20,-39 -20,-69zm73 -59c-11,0 -20,5 -27,14 -6,9 -10,25 -10,49 0,21 4,37 11,45 7,9 15,14 25,14 11,0 20,-5 27,-14 6,-8 10,-25 10,-48 0,-22 -4,-38 -11,-47 -6,-8 -15,-13 -25,-13z"/>
   <path id="4" class="fil4" d="M6302 8226l-42 0 0 -266c-10,10 -23,19 -39,29 -17,9 -31,17 -44,21l0 -40c23,-11 43,-24 61,-40 17,-15 30,-31 37,-45l27 0 0 341z"/>
   <path class="fil4" d="M2528 8407c0,-41 4,-73 12,-98 8,-24 21,-43 37,-56 16,-14 37,-20 61,-20 19,0 35,3 48,11 14,7 26,18 35,32 8,13 15,30 20,50 6,20 8,47 8,81 0,39 -4,72 -12,96 -8,25 -21,44 -37,57 -16,13 -37,20 -62,20 -32,0 -58,-12 -77,-35 -22,-28 -33,-75 -33,-138zm42 0c0,56 7,93 20,111 13,19 29,28 48,28 20,0 36,-9 49,-28 13,-18 19,-55 19,-111 0,-56 -6,-94 -19,-112 -13,-18 -30,-28 -49,-28 -19,0 -35,9 -46,25 -14,21 -22,59 -22,115z"/>
   <path id="1" class="fil4" d="M2800 8316c0,-24 6,-45 18,-62 12,-17 30,-26 53,-26 22,0 39,8 53,23 14,15 21,38 21,67 0,29 -7,51 -21,67 -14,15 -32,23 -52,23 -21,0 -38,-8 -52,-23 -14,-15 -20,-38 -20,-69zm72 -59c-10,0 -19,5 -25,14 -7,9 -11,25 -11,49 0,22 4,37 11,46 7,9 15,13 25,13 11,0 20,-4 27,-13 6,-9 10,-26 10,-49 0,-22 -4,-37 -11,-46 -7,-9 -15,-14 -26,-14zm1 330l185 -359 34 0 -185 359 -34 0zm146 -92c0,-25 6,-46 18,-63 13,-16 30,-25 54,-25 21,0 39,8 53,23 14,15 21,38 21,67 0,29 -7,51 -21,66 -14,16 -32,24 -53,24 -21,0 -38,-8 -51,-23 -14,-16 -21,-39 -21,-69zm73 -59c-10,0 -19,5 -26,14 -7,8 -10,25 -10,49 0,21 3,36 10,45 7,9 16,14 26,14 10,0 19,-5 26,-14 7,-9 10,-25 10,-49 0,-21 -3,-37 -10,-46 -7,-8 -16,-13 -26,-13z"/>
   <path class="fil1" d="M7886 369l0 49 -275 0c0,-13 2,-25 6,-36 7,-19 19,-37 34,-55 16,-18 38,-39 67,-63 45,-37 75,-66 91,-88 17,-22 25,-42 25,-62 0,-20 -8,-37 -22,-51 -15,-14 -34,-21 -57,-21 -25,0 -44,8 -59,22 -15,15 -23,35 -23,61l-52 -5c4,-39 17,-69 41,-89 23,-21 55,-31 94,-31 40,0 72,11 95,33 23,22 35,50 35,83 0,16 -4,33 -10,49 -7,16 -19,33 -34,51 -16,17 -42,42 -79,73 -31,25 -50,43 -59,52 -9,9 -16,18 -22,28l204 0z"/>
   <path id="1" class="fil1" d="M7949 321l49 -4c4,23 12,40 24,50 12,10 27,16 45,16 16,0 29,-4 41,-11 12,-7 22,-17 29,-29 8,-12 14,-28 19,-49 5,-20 8,-41 8,-62 0,-2 0,-6 0,-10 -11,16 -25,29 -42,39 -18,10 -37,15 -58,15 -34,0 -63,-12 -87,-37 -23,-25 -35,-58 -35,-99 0,-42 12,-76 37,-101 25,-26 56,-39 93,-39 27,0 52,7 74,22 23,14 40,35 51,62 12,27 18,66 18,117 0,53 -6,95 -18,127 -11,31 -28,55 -51,72 -23,16 -49,25 -80,25 -33,0 -59,-9 -80,-28 -20,-18 -33,-43 -37,-76zm209 -183c0,-29 -8,-53 -24,-70 -15,-17 -34,-26 -56,-26 -23,0 -42,10 -59,28 -17,19 -25,43 -25,72 0,26 8,48 24,64 16,17 35,25 59,25 23,0 43,-8 58,-25 15,-16 23,-39 23,-68z"/>
   <path id="2" class="fil1" d="M8439 418l0 -302 46 0 0 46c12,-21 23,-35 33,-42 10,-7 21,-10 33,-10 17,0 34,5 52,16l-18 47c-12,-7 -25,-10 -37,-10 -11,0 -21,3 -30,10 -9,6 -15,16 -19,28 -6,18 -9,37 -9,59l0 158 -51 0z"/>
   <path id="3" class="fil1" d="M8839 320l53 7c-8,31 -24,55 -46,71 -23,17 -51,26 -86,26 -44,0 -79,-14 -105,-41 -26,-27 -39,-65 -39,-114 0,-50 13,-89 39,-117 27,-28 60,-42 102,-42 40,0 73,13 98,41 26,27 38,66 38,115 0,3 0,8 0,14l-224 0c2,33 11,58 28,76 17,17 38,26 63,26 18,0 34,-5 47,-15 14,-10 24,-25 32,-47zm-167 -82l167 0c-2,-25 -8,-44 -19,-57 -16,-20 -37,-29 -63,-29 -23,0 -43,7 -59,23 -16,16 -25,37 -26,63z"/>
   <path id="4" class="fil1" d="M8936 328l50 -9c3,21 11,36 24,47 13,11 31,16 55,16 23,0 41,-5 52,-14 11,-10 17,-21 17,-34 0,-11 -5,-20 -15,-27 -7,-5 -25,-10 -53,-17 -37,-10 -63,-18 -77,-25 -15,-7 -26,-16 -33,-28 -8,-12 -11,-26 -11,-41 0,-13 3,-25 9,-37 6,-11 14,-21 25,-28 8,-6 19,-11 32,-15 14,-4 29,-6 44,-6 24,0 45,3 63,10 17,7 31,16 39,28 9,11 14,27 18,47l-50 7c-3,-16 -9,-28 -20,-37 -11,-9 -26,-13 -46,-13 -23,0 -40,3 -50,11 -10,8 -15,17 -15,27 0,7 2,13 6,18 4,6 11,10 20,14 5,2 20,6 45,13 36,9 61,17 75,24 15,6 26,15 34,26 8,12 12,26 12,44 0,17 -5,33 -15,48 -10,15 -24,26 -43,35 -18,8 -40,12 -63,12 -39,0 -69,-8 -90,-24 -20,-17 -33,-41 -39,-72z"/>
   <path id="5" class="fil1" d="M9247 533l0 -417 46 0 0 40c11,-16 23,-27 37,-35 14,-7 31,-11 50,-11 26,0 49,6 68,20 20,13 35,31 45,55 10,25 15,51 15,80 0,30 -6,58 -17,83 -11,24 -27,43 -48,56 -21,13 -43,20 -66,20 -17,0 -32,-4 -46,-11 -13,-7 -25,-16 -33,-27l0 147 -51 0zm46 -264c0,38 8,67 24,85 15,19 34,28 56,28 23,0 42,-9 59,-29 16,-19 24,-48 24,-89 0,-38 -8,-67 -24,-86 -16,-19 -34,-28 -56,-28 -22,0 -41,10 -58,30 -17,21 -25,50 -25,89z"/>
   <path id="6" class="fil1" d="M9550 267c0,-56 16,-97 47,-124 26,-22 58,-33 95,-33 41,0 75,13 101,40 27,27 40,65 40,113 0,38 -6,69 -18,91 -11,22 -28,39 -51,52 -22,12 -46,18 -72,18 -42,0 -76,-14 -103,-41 -26,-27 -39,-65 -39,-116zm53 0c0,38 8,67 25,86 17,20 38,29 64,29 25,0 46,-9 63,-29 17,-19 25,-48 25,-88 0,-37 -8,-65 -25,-84 -17,-19 -38,-29 -63,-29 -26,0 -47,10 -64,29 -17,19 -25,48 -25,86z"/>
   <path id="7" class="fil1" d="M9872 328l51 -9c3,21 11,36 24,47 12,11 31,16 54,16 23,0 41,-5 52,-14 12,-10 17,-21 17,-34 0,-11 -5,-20 -15,-27 -7,-5 -25,-10 -52,-17 -38,-10 -63,-18 -78,-25 -14,-7 -25,-16 -33,-28 -7,-12 -11,-26 -11,-41 0,-13 3,-25 9,-37 6,-11 15,-21 25,-28 8,-6 19,-11 33,-15 13,-4 28,-6 44,-6 23,0 44,3 62,10 18,7 31,16 39,28 9,11 15,27 18,47l-50 7c-2,-16 -9,-28 -20,-37 -10,-9 -26,-13 -46,-13 -23,0 -40,3 -50,11 -10,8 -15,17 -15,27 0,7 2,13 7,18 4,6 10,10 19,14 5,2 20,6 45,13 36,9 61,17 76,24 14,6 25,15 33,26 9,12 13,26 13,44 0,17 -5,33 -15,48 -10,15 -25,26 -43,35 -19,8 -40,12 -64,12 -39,0 -69,-8 -89,-24 -21,-17 -34,-41 -40,-72z"/>
   <path id="8" class="fil1" d="M10294 372l7 45c-14,3 -27,5 -39,5 -18,0 -32,-3 -43,-9 -10,-6 -17,-14 -21,-23 -4,-10 -6,-30 -6,-61l0 -173 -38 0 0 -40 38 0 0 -74 51 -31 0 105 51 0 0 40 -51 0 0 176c0,15 1,24 3,28 1,5 4,8 8,10 4,3 10,4 18,4 5,0 13,-1 22,-2z"/>
   <path id="9" class="fil1" d="M10541 380c-19,16 -37,27 -55,34 -17,7 -36,10 -56,10 -33,0 -59,-8 -76,-24 -18,-16 -27,-37 -27,-62 0,-15 3,-28 10,-40 7,-13 16,-22 26,-30 11,-7 24,-13 37,-16 10,-3 25,-5 46,-8 41,-5 71,-11 91,-18 0,-6 0,-11 0,-13 0,-20 -5,-35 -14,-44 -13,-11 -33,-17 -59,-17 -24,0 -42,4 -53,13 -12,8 -20,23 -25,45l-50 -7c4,-22 12,-39 22,-52 11,-13 26,-23 45,-31 20,-7 43,-10 69,-10 26,0 47,3 63,9 16,6 28,14 35,23 8,9 13,21 16,35 2,8 3,24 3,46l0 68c0,48 1,77 3,90 2,13 6,25 12,37l-53 0c-5,-11 -8,-24 -10,-38zm-4 -113c-18,7 -46,13 -84,19 -21,3 -36,6 -44,10 -9,4 -16,9 -20,16 -5,8 -8,16 -8,25 0,13 6,24 16,33 10,9 25,14 45,14 20,0 37,-4 53,-13 15,-9 26,-20 34,-35 5,-12 8,-29 8,-51l0 -18z"/>
   <path id="10" class="fil1" d="M10647 328l50 -9c3,21 11,36 24,47 13,11 31,16 55,16 23,0 41,-5 52,-14 11,-10 17,-21 17,-34 0,-11 -5,-20 -15,-27 -7,-5 -25,-10 -53,-17 -37,-10 -63,-18 -77,-25 -15,-7 -26,-16 -33,-28 -8,-12 -11,-26 -11,-41 0,-13 3,-25 9,-37 6,-11 14,-21 25,-28 8,-6 19,-11 32,-15 14,-4 29,-6 44,-6 24,0 45,3 63,10 17,7 31,16 39,28 9,11 14,27 18,47l-50 7c-3,-16 -9,-28 -20,-37 -11,-9 -26,-13 -46,-13 -23,0 -40,3 -50,11 -10,8 -15,17 -15,27 0,7 2,13 6,18 4,6 11,10 20,14 5,2 20,6 45,13 36,9 61,17 75,24 15,6 26,15 34,26 8,12 12,26 12,44 0,17 -5,33 -15,48 -10,15 -24,26 -43,35 -18,8 -40,12 -63,12 -39,0 -69,-8 -90,-24 -20,-17 -33,-41 -39,-72z"/>
  </g>
 </g>
</svg>
