<?xml version="1.0" encoding="UTF-8"?>
<!DOCTYPE svg PUBLIC "-//W3C//DTD SVG 1.1//EN" "http://www.w3.org/Graphics/SVG/1.1/DTD/svg11.dtd">
<!-- Creator: CorelDRAW X8 -->
<svg xmlns="http://www.w3.org/2000/svg" xml:space="preserve" width="270.055mm" height="122.352mm" version="1.1" style="shape-rendering:geometricPrecision; text-rendering:geometricPrecision; image-rendering:optimizeQuality; fill-rule:evenodd; clip-rule:evenodd"
viewBox="0 0 18523 8392"
 xmlns:xlink="http://www.w3.org/1999/xlink">
 <defs>
  <style type="text/css">
   <![CDATA[
    .str0 {stroke:#A9ABAE;stroke-width:13.7178}
    .fil0 {fill:#FEFEFE}
    .fil2 {fill:#009688}
    .fil3 {fill:#FEFEFE;fill-rule:nonzero}
    .fil1 {fill:#373435;fill-rule:nonzero}
    .fil4 {fill:#373435;fill-rule:nonzero}
   ]]>
  </style>
 </defs>
 <g id="Camada_x0020_1">
  <metadata id="CorelCorpID_0Corel-Layer"/>
  <rect class="fil0 str0" x="942" y="130" width="17574" height="1881"/>
  <rect class="fil0 str0" x="942" y="2010" width="17574" height="1881"/>
  <rect class="fil0 str0" x="942" y="3891" width="17574" height="1881"/>
  <rect class="fil0 str0" x="942" y="5772" width="17574" height="1881"/>
  <path class="fil1" d="M227 303l0 40 -227 0c0,-10 2,-19 5,-29 6,-15 15,-30 28,-45 13,-15 31,-32 55,-52 37,-30 62,-54 75,-72 14,-18 20,-35 20,-51 0,-17 -6,-31 -18,-42 -12,-11 -27,-17 -46,-17 -21,0 -37,6 -49,18 -12,12 -18,29 -19,50l-43 -4c3,-32 15,-57 34,-74 19,-17 45,-25 78,-25 32,0 58,9 78,27 19,19 28,41 28,68 0,14 -3,27 -8,40 -6,14 -15,28 -28,42 -13,15 -35,35 -65,60 -25,22 -41,36 -48,44 -8,7 -13,15 -18,22l168 0z"/>
  <path id="1" class="fil1" d="M272 175c0,-41 4,-73 13,-98 8,-25 20,-44 37,-57 16,-13 37,-20 61,-20 19,0 35,4 49,11 14,7 25,18 34,32 9,14 16,31 21,51 5,20 8,47 8,81 0,40 -4,72 -13,97 -8,25 -20,44 -36,57 -17,13 -38,20 -63,20 -32,0 -58,-12 -77,-35 -23,-29 -34,-75 -34,-139zm43 0c0,56 7,94 20,112 13,19 29,28 48,28 20,0 36,-10 49,-28 13,-19 20,-56 20,-112 0,-56 -7,-94 -20,-112 -13,-19 -29,-28 -49,-28 -19,0 -35,8 -46,24 -15,21 -22,60 -22,116z"/>
  <path id="2" class="fil1" d="M164 2223l-42 0 0 -267c-10,9 -23,19 -40,29 -16,9 -31,17 -44,21l0 -40c24,-11 44,-25 62,-40 17,-16 30,-31 37,-46l27 0 0 343z"/>
  <path id="3" class="fil1" d="M272 2134l44 -4c3,22 11,38 23,49 12,10 26,16 43,16 20,0 37,-8 51,-23 14,-15 21,-36 21,-61 0,-24 -6,-43 -20,-56 -13,-14 -31,-21 -53,-21 -13,0 -25,3 -36,9 -11,6 -19,14 -26,24l-39 -6 33 -175 169 0 0 40 -136 0 -18 92c21,-14 42,-21 64,-21 30,0 55,10 76,31 20,20 31,47 31,79 0,31 -9,58 -27,81 -22,27 -52,41 -90,41 -31,0 -56,-9 -76,-26 -20,-17 -31,-41 -34,-69z"/>
  <path id="4" class="fil1" d="M164 4103l-42 0 0 -267c-10,9 -23,19 -40,29 -16,9 -31,17 -44,21l0 -40c24,-11 44,-25 62,-40 17,-16 30,-31 37,-46l27 0 0 343z"/>
  <path id="5" class="fil1" d="M272 3935c0,-41 4,-73 13,-98 8,-25 20,-44 37,-57 16,-13 37,-20 61,-20 19,0 35,4 49,11 14,7 25,18 34,32 9,14 16,31 21,51 5,20 8,47 8,81 0,40 -4,72 -13,97 -8,25 -20,44 -36,57 -17,13 -38,20 -63,20 -32,0 -58,-12 -77,-35 -23,-29 -34,-75 -34,-139zm43 0c0,56 7,93 20,112 13,18 29,28 48,28 20,0 36,-10 49,-28 13,-19 20,-56 20,-112 0,-57 -7,-94 -20,-112 -13,-19 -29,-28 -49,-28 -19,0 -35,8 -46,24 -15,21 -22,60 -22,116z"/>
  <path id="6" class="fil1" d="M272 5894l44 -4c3,22 11,38 23,48 12,11 26,17 43,17 20,0 37,-8 51,-23 14,-15 21,-36 21,-61 0,-24 -6,-43 -20,-57 -13,-13 -31,-20 -53,-20 -13,0 -25,3 -36,9 -11,6 -19,14 -26,24l-39 -6 33 -175 169 0 0 40 -136 0 -18 92c21,-14 42,-22 64,-22 30,0 55,11 76,31 20,21 31,48 31,80 0,31 -9,58 -27,80 -22,28 -52,42 -90,42 -31,0 -56,-9 -76,-26 -20,-18 -31,-41 -34,-69z"/>
  <path id="7" class="fil1" d="M272 7694c0,-40 4,-73 13,-97 8,-25 20,-44 37,-57 16,-14 37,-20 61,-20 19,0 35,3 49,11 14,7 25,18 34,32 9,14 16,31 21,51 5,20 8,47 8,80 0,41 -4,73 -13,98 -8,25 -20,44 -36,57 -17,13 -38,20 -63,20 -32,0 -58,-12 -77,-35 -23,-29 -34,-75 -34,-140zm43 1c0,56 7,93 20,112 13,18 29,28 48,28 20,0 36,-10 49,-28 13,-19 20,-56 20,-112 0,-57 -7,-94 -20,-113 -13,-18 -29,-27 -49,-27 -19,0 -35,8 -46,24 -15,21 -22,60 -22,116z"/>
 </g>
 <g id="Camada_x0020_1_0">
  <metadata id="CorelCorpID_1Corel-Layer"/>
  <rect class="fil2" x="15668" y="549" width="2178" height="7103"/>
  <rect class="fil2" x="12150" y="5772" width="2178" height="1881"/>
  <rect class="fil2" x="8665" y="6144" width="2178" height="1508"/>
  <rect class="fil2" x="5164" y="7284" width="2178" height="369"/>
  <path class="fil1" d="M2813 8386l-45 0 0 -288c-11,10 -26,21 -43,31 -18,10 -34,18 -48,23l0 -44c25,-11 48,-26 66,-43 19,-17 33,-33 41,-49l29 0 0 370z"/>
  <path id="1" class="fil1" d="M6375 8343l0 43 -244 0c0,-11 2,-21 6,-32 6,-16 16,-33 30,-49 14,-16 33,-34 59,-55 40,-33 67,-59 81,-78 14,-19 21,-37 21,-55 0,-18 -6,-33 -19,-45 -13,-12 -30,-18 -50,-18 -22,0 -40,6 -53,19 -13,13 -19,31 -20,54l-46 -4c3,-35 15,-61 36,-80 21,-18 49,-27 84,-27 35,0 63,10 84,29 20,20 31,44 31,73 0,15 -3,30 -9,44 -6,14 -16,29 -30,45 -14,16 -38,37 -70,65 -27,23 -45,38 -52,46 -8,8 -15,16 -20,25l181 0z"/>
  <path id="2" class="fil1" d="M9633 8288l45 -6c6,26 14,44 27,56 12,11 27,16 46,16 21,0 39,-7 54,-22 14,-14 21,-33 21,-54 0,-21 -6,-38 -20,-52 -13,-13 -31,-20 -52,-20 -8,0 -19,2 -32,5l5 -40c3,1 6,1 8,1 19,0 36,-5 52,-15 15,-10 23,-26 23,-46 0,-17 -6,-31 -17,-42 -11,-10 -26,-16 -43,-16 -18,0 -33,6 -44,17 -12,11 -20,28 -23,50l-45 -8c5,-31 18,-54 37,-71 20,-17 44,-25 74,-25 20,0 38,4 55,13 17,9 30,20 39,35 9,15 13,31 13,48 0,15 -4,30 -12,43 -9,13 -22,23 -38,31 21,5 38,15 50,31 12,16 18,36 18,60 0,32 -11,59 -35,82 -23,22 -53,33 -89,33 -32,0 -59,-10 -80,-29 -22,-19 -34,-44 -37,-75z"/>
  <path id="3" class="fil1" d="M13273 8386l0 -88 -160 0 0 -42 168 -238 37 0 0 238 50 0 0 42 -50 0 0 88 -45 0zm0 -130l0 -165 -116 165 116 0z"/>
  <path id="4" class="fil1" d="M16623 8289l47 -3c4,23 12,40 25,52 12,11 28,17 46,17 22,0 41,-8 56,-25 14,-16 22,-38 22,-65 0,-26 -7,-46 -21,-61 -15,-15 -34,-22 -57,-22 -15,0 -28,3 -40,10 -11,6 -20,15 -27,26l-43 -6 36 -190 182 0 0 43 -146 0 -20 100c22,-16 45,-23 70,-23 32,0 59,11 81,33 22,22 33,51 33,86 0,33 -10,62 -29,86 -24,30 -56,45 -97,45 -33,0 -61,-9 -82,-28 -21,-19 -33,-44 -36,-75z"/>
  <path class="fil3" d="M16326 965l-41 3c-4,-16 -9,-28 -16,-36 -12,-12 -26,-18 -42,-18 -14,0 -25,4 -36,12 -13,9 -23,23 -31,41 -7,19 -11,45 -12,79 10,-15 23,-27 37,-34 15,-7 30,-11 46,-11 28,0 52,10 71,31 20,20 30,47 30,79 0,22 -5,41 -14,60 -9,18 -22,32 -38,42 -16,10 -34,15 -55,15 -35,0 -63,-13 -85,-39 -22,-25 -33,-68 -33,-126 0,-66 12,-114 36,-144 22,-26 50,-39 86,-39 27,0 49,8 66,23 17,15 28,35 31,62zm-171 147c0,14 3,28 9,41 6,13 15,23 26,30 11,7 22,10 34,10 18,0 33,-7 46,-21 13,-14 19,-34 19,-58 0,-24 -6,-42 -19,-56 -12,-13 -28,-20 -47,-20 -19,0 -35,7 -48,20 -13,14 -20,32 -20,54z"/>
  <path id="1" class="fil3" d="M16373 1133l44 -4c3,22 11,38 22,48 12,11 26,16 43,16 21,0 38,-7 52,-22 13,-16 20,-36 20,-61 0,-24 -6,-42 -20,-56 -13,-14 -30,-21 -52,-21 -14,0 -26,3 -37,9 -10,7 -19,15 -25,24l-39 -5 33 -175 168 0 0 40 -135 0 -18 92c20,-15 41,-22 64,-22 29,0 54,10 75,31 20,21 30,47 30,79 0,31 -9,58 -26,80 -22,28 -52,42 -90,42 -31,0 -56,-9 -75,-26 -20,-18 -31,-41 -34,-69z"/>
  <path id="2" class="fil3" d="M16660 1222l0 -48 47 0 0 48c0,17 -3,32 -9,42 -6,11 -16,20 -30,25l-11 -18c9,-4 15,-9 19,-17 5,-7 7,-18 7,-32l-23 0z"/>
  <path id="3" class="fil3" d="M16769 1133l44 -4c3,22 11,38 23,48 11,11 26,16 43,16 20,0 37,-7 51,-22 14,-16 21,-36 21,-61 0,-24 -7,-42 -20,-56 -14,-14 -31,-21 -53,-21 -13,0 -25,3 -36,9 -11,7 -19,15 -25,24l-40 -5 33 -175 169 0 0 40 -136 0 -18 92c20,-15 42,-22 64,-22 30,0 55,10 75,31 20,21 31,47 31,79 0,31 -9,58 -27,80 -22,28 -52,42 -89,42 -31,0 -56,-9 -76,-26 -20,-18 -31,-41 -34,-69z"/>
  <path id="4" class="fil3" d="M17041 963c0,-24 6,-45 19,-62 12,-17 30,-25 53,-25 21,0 39,8 53,23 14,15 21,37 21,67 0,29 -7,51 -21,66 -14,16 -32,24 -52,24 -21,0 -38,-8 -52,-23 -14,-16 -21,-39 -21,-70zm73 -58c-10,0 -19,4 -26,13 -7,9 -10,26 -10,49 0,22 3,37 10,46 7,9 16,14 26,14 11,0 19,-5 26,-14 7,-9 11,-25 11,-49 0,-22 -4,-37 -11,-46 -7,-9 -15,-13 -26,-13zm0 329l186 -358 34 0 -185 358 -35 0zm147 -92c0,-24 6,-45 18,-62 12,-17 30,-25 54,-25 21,0 39,7 53,22 14,16 21,38 21,68 0,28 -7,50 -21,66 -15,15 -32,23 -53,23 -21,0 -38,-7 -52,-23 -13,-15 -20,-38 -20,-69zm73 -58c-11,0 -19,4 -26,13 -7,9 -11,25 -11,49 0,22 4,37 11,46 7,9 15,13 26,13 10,0 19,-4 26,-13 7,-9 10,-25 10,-49 0,-22 -3,-37 -10,-46 -7,-9 -16,-13 -26,-13z"/>
  <path class="fil3" d="M12731 6329l-42 0 0 -267c-10,10 -23,20 -40,29 -16,10 -31,17 -44,22l0 -41c24,-11 44,-24 62,-40 17,-15 30,-30 37,-45l27 0 0 342z"/>
  <path id="1" class="fil3" d="M12841 6033l0 -40 220 0 0 32c-22,23 -43,54 -65,92 -21,38 -37,78 -49,118 -8,28 -14,60 -16,94l-43 0c1,-27 6,-60 16,-98 10,-38 24,-74 43,-109 19,-36 39,-65 60,-89l-166 0z"/>
  <path id="2" class="fil3" d="M13125 6329l0 -48 48 0 0 48c0,17 -4,31 -10,42 -6,11 -16,19 -29,25l-12 -18c9,-4 16,-10 20,-17 4,-8 6,-18 7,-32l-24 0z"/>
  <path id="3" class="fil3" d="M13454 6289l0 40 -225 0c-1,-10 1,-20 4,-29 6,-16 15,-31 28,-46 13,-15 31,-32 55,-51 37,-30 62,-54 75,-72 13,-18 20,-35 20,-50 0,-17 -6,-31 -18,-42 -12,-12 -28,-17 -47,-17 -20,0 -36,6 -48,18 -12,12 -18,28 -19,50l-42 -5c3,-32 14,-56 33,-73 19,-17 45,-25 77,-25 33,0 59,9 78,27 19,18 28,41 28,67 0,14 -2,27 -8,41 -6,13 -15,27 -28,41 -13,15 -34,35 -64,60 -25,21 -41,36 -49,43 -7,8 -13,15 -17,23l167 0z"/>
  <path id="4" class="fil3" d="M13507 6070c0,-24 6,-45 18,-62 12,-17 30,-25 53,-25 22,0 39,7 53,22 14,16 21,38 21,68 0,28 -7,50 -21,66 -14,16 -32,23 -52,23 -21,0 -38,-7 -52,-23 -14,-15 -20,-38 -20,-69zm72 -58c-10,0 -19,4 -25,13 -7,9 -11,25 -11,49 0,22 4,37 11,46 7,9 15,13 25,13 11,0 20,-4 27,-13 6,-9 10,-25 10,-49 0,-22 -4,-37 -11,-46 -7,-9 -15,-13 -26,-13zm1 329l185 -358 34 0 -185 358 -34 0zm146 -92c0,-25 6,-45 19,-62 12,-17 30,-26 53,-26 21,0 39,8 53,23 14,15 21,38 21,67 0,29 -7,51 -21,67 -14,15 -32,23 -53,23 -20,0 -38,-8 -51,-23 -14,-15 -21,-39 -21,-69zm73 -59c-10,0 -19,5 -26,14 -7,9 -10,25 -10,49 0,21 3,37 10,46 7,9 16,13 26,13 11,0 19,-4 26,-13 7,-9 10,-26 10,-49 0,-22 -3,-38 -10,-46 -7,-9 -16,-14 -26,-14z"/>
  <path class="fil3" d="M9246 6712l-42 0 0 -266c-10,9 -23,19 -39,28 -16,10 -31,17 -44,22l0 -40c23,-11 44,-25 61,-40 18,-16 30,-31 37,-46l27 0 0 342z"/>
  <path id="1" class="fil3" d="M9354 6622l42 -6c4,24 12,41 24,51 11,11 26,16 42,16 20,0 37,-7 50,-21 14,-13 20,-30 20,-50 0,-19 -6,-35 -18,-48 -13,-12 -29,-18 -48,-18 -8,0 -18,1 -30,4l5 -36c3,0 5,0 7,0 17,0 33,-5 48,-14 14,-9 21,-23 21,-43 0,-15 -5,-28 -15,-38 -11,-10 -24,-15 -41,-15 -16,0 -29,6 -40,16 -11,10 -18,26 -21,46l-42 -7c5,-29 17,-50 35,-66 18,-15 40,-23 67,-23 19,0 36,4 52,12 15,8 27,19 36,33 8,13 12,28 12,43 0,15 -4,28 -12,40 -8,12 -19,22 -35,29 20,5 36,14 47,29 11,15 17,33 17,55 0,30 -11,55 -33,76 -22,20 -49,31 -82,31 -30,0 -55,-9 -74,-27 -20,-18 -31,-41 -34,-69z"/>
  <path id="2" class="fil3" d="M9640 6712l0 -48 48 0 0 48c0,17 -3,31 -9,42 -7,11 -17,19 -30,25l-11 -18c8,-4 15,-9 19,-17 4,-7 7,-18 7,-32l-24 0z"/>
  <path id="3" class="fil3" d="M9814 6527c-17,-6 -30,-15 -38,-27 -8,-12 -13,-26 -13,-42 0,-25 9,-46 27,-63 18,-16 41,-25 71,-25 30,0 53,9 72,26 18,17 27,38 27,63 0,16 -5,30 -13,41 -8,12 -20,21 -37,27 20,7 36,18 47,33 11,15 16,33 16,55 0,29 -10,53 -30,73 -21,20 -48,30 -82,30 -33,0 -60,-10 -81,-30 -20,-20 -30,-45 -30,-75 0,-22 5,-40 16,-55 12,-15 28,-25 48,-31zm-8 -71c0,17 5,30 15,40 11,10 24,15 41,15 16,0 29,-5 40,-15 10,-10 15,-22 15,-37 0,-16 -5,-29 -16,-39 -10,-10 -24,-16 -40,-16 -16,0 -29,6 -39,16 -11,10 -16,22 -16,36zm-14 158c0,12 3,23 9,34 5,11 14,20 25,26 11,6 23,9 36,9 20,0 36,-6 49,-19 13,-13 20,-29 20,-49 0,-20 -7,-37 -20,-50 -14,-13 -30,-20 -51,-20 -19,0 -36,7 -48,20 -13,13 -20,29 -20,49z"/>
  <path id="4" class="fil3" d="M10022 6453c0,-24 6,-45 18,-62 13,-17 30,-25 54,-25 21,0 39,7 53,23 14,15 21,37 21,67 0,29 -7,51 -21,66 -15,16 -32,23 -53,23 -21,0 -38,-7 -51,-22 -14,-16 -21,-39 -21,-70zm73 -58c-11,0 -19,4 -26,13 -7,9 -10,26 -10,49 0,22 3,37 10,46 7,9 16,14 26,14 10,0 19,-5 26,-14 7,-9 10,-25 10,-49 0,-22 -3,-37 -10,-46 -7,-9 -16,-13 -26,-13zm0 329l186 -358 34 0 -185 358 -35 0zm146 -92c0,-24 7,-45 19,-62 12,-17 30,-25 53,-25 22,0 39,7 53,22 14,16 21,38 21,67 0,29 -7,51 -21,67 -14,15 -32,23 -53,23 -20,0 -37,-8 -51,-23 -14,-15 -21,-38 -21,-69zm73 -58c-10,0 -19,4 -26,13 -7,9 -10,25 -10,49 0,22 4,37 11,46 6,9 15,13 25,13 11,0 20,-4 26,-13 7,-9 11,-25 11,-49 0,-22 -4,-37 -11,-46 -7,-9 -15,-13 -26,-13z"/>
  <path class="fil4" d="M5736 6965l42 -6c5,24 13,41 24,52 12,10 26,15 42,15 20,0 37,-7 50,-20 14,-14 21,-31 21,-51 0,-19 -7,-35 -19,-47 -13,-13 -29,-19 -48,-19 -8,0 -18,2 -30,5l5 -37c3,0 5,1 7,1 18,0 34,-5 48,-14 14,-10 21,-24 21,-43 0,-15 -5,-28 -15,-38 -11,-10 -24,-15 -40,-15 -17,0 -30,5 -41,15 -11,11 -18,26 -21,47l-42 -8c5,-28 17,-50 35,-65 18,-16 41,-23 68,-23 18,0 35,4 51,12 15,7 27,18 36,32 8,14 12,28 12,44 0,14 -4,28 -12,40 -8,12 -19,21 -35,29 20,4 36,14 47,28 11,15 17,33 17,55 0,30 -11,55 -33,76 -21,21 -49,31 -82,31 -30,0 -55,-9 -74,-27 -20,-18 -31,-41 -34,-69z"/>
  <path id="1" class="fil4" d="M6022 7055l0 -47 48 0 0 47c0,18 -3,32 -9,43 -7,10 -16,19 -30,25l-11 -18c9,-4 15,-10 19,-17 4,-8 7,-19 7,-33l-24 0z"/>
  <path id="2" class="fil4" d="M6266 7055l0 -81 -148 0 0 -38 155 -221 35 0 0 221 46 0 0 38 -46 0 0 81 -42 0zm0 -119l0 -154 -107 154 107 0z"/>
  <path id="3" class="fil4" d="M6404 6797c0,-25 6,-45 18,-62 13,-17 30,-26 54,-26 21,0 39,8 53,23 14,15 21,38 21,67 0,29 -7,51 -21,67 -15,15 -32,23 -53,23 -20,0 -38,-8 -51,-23 -14,-15 -21,-38 -21,-69zm73 -59c-10,0 -19,5 -26,14 -7,9 -10,25 -10,49 0,22 3,37 10,46 7,9 16,13 26,13 10,0 19,-4 26,-13 7,-9 10,-26 10,-49 0,-22 -3,-38 -10,-46 -7,-9 -16,-14 -26,-14zm0 330l186 -359 34 0 -185 359 -35 0zm147 -93c0,-24 6,-45 18,-62 12,-17 30,-25 53,-25 22,0 39,8 54,23 14,15 20,37 20,67 0,29 -7,51 -21,66 -14,16 -31,24 -52,24 -21,0 -38,-8 -52,-23 -14,-16 -20,-39 -20,-70zm73 -58c-11,0 -20,4 -27,13 -6,9 -10,26 -10,50 0,21 4,36 11,45 7,9 15,14 25,14 11,0 20,-5 27,-14 6,-9 10,-25 10,-49 0,-22 -4,-37 -11,-46 -6,-9 -15,-13 -25,-13z"/>
  <path class="fil4" d="M2528 7341c0,-40 4,-73 12,-97 8,-25 21,-44 37,-57 16,-13 37,-20 61,-20 19,0 35,4 48,11 14,8 26,18 35,32 8,14 15,31 20,51 6,20 8,46 8,80 0,40 -4,72 -12,97 -8,24 -21,43 -37,57 -16,13 -37,20 -62,20 -32,0 -58,-12 -77,-35 -22,-29 -33,-75 -33,-139zm42 0c0,56 7,93 20,112 13,18 29,27 48,27 20,0 36,-9 49,-27 13,-19 19,-56 19,-112 0,-56 -6,-93 -19,-111 -13,-19 -30,-28 -49,-28 -19,0 -35,8 -46,24 -14,21 -22,59 -22,115z"/>
  <path id="1" class="fil4" d="M2800 7250c0,-24 6,-45 18,-61 12,-18 30,-26 53,-26 22,0 39,8 53,23 14,15 21,37 21,67 0,29 -7,51 -21,66 -14,16 -32,24 -52,24 -21,0 -38,-8 -52,-23 -14,-16 -20,-39 -20,-70zm72 -58c-10,0 -19,4 -25,13 -7,9 -11,26 -11,50 0,21 4,37 11,45 7,9 15,14 25,14 11,0 20,-5 27,-14 6,-9 10,-25 10,-49 0,-22 -4,-37 -11,-46 -7,-9 -15,-13 -26,-13zm1 329l185 -358 34 0 -185 358 -34 0zm146 -92c0,-24 6,-45 18,-62 13,-17 30,-25 54,-25 21,0 39,7 53,22 14,16 21,38 21,68 0,28 -7,51 -21,66 -14,16 -32,23 -53,23 -21,0 -38,-7 -51,-23 -14,-15 -21,-38 -21,-69zm73 -58c-10,0 -19,4 -26,13 -7,9 -10,25 -10,49 0,22 3,37 10,46 7,9 16,13 26,13 10,0 19,-4 26,-13 7,-9 10,-25 10,-49 0,-22 -3,-37 -10,-46 -7,-9 -16,-13 -26,-13z"/>
 </g>
</svg>
